<svg xmlns="http://www.w3.org/2000/svg" xmlns:xlink="http://www.w3.org/1999/xlink" viewBox="0 0 430 430" width="430" height="430" preserveAspectRatio="xMidYMid meet" style="width: 100%; height: 100%; transform: translate3d(0px, 0px, 0px); content-visibility: visible;"><defs><clipPath id="__lottie_element_2"><rect width="430" height="430" x="0" y="0"/></clipPath><clipPath id="__lottie_element_4"><path d="M0,0 L430,0 L430,430 L0,430z"/></clipPath><filter id="__lottie_element_10" x="-100%" y="-100%" width="300%" height="300%"><feGaussianBlur result="filter_result_0" stdDeviation="52.5 52.5" edgeMode="wrap"/></filter><g id="__lottie_element_11"><g clip-path="url(#__lottie_element_12)" transform="matrix(1,0,0,1,0,0)" opacity="1" style="display: block;"><g transform="matrix(1,0,0,1,294.5,272.5)" opacity="1" style="display: none;"><g opacity="1" transform="matrix(1,0,0,1,0,0)"><path stroke-linecap="round" stroke-linejoin="round" fill-opacity="0" class="secondary" stroke="rgb(8,168,138)" stroke-opacity="1" stroke-width="18" d=" M55.33444595336914,33.5 C55.33444595336914,33.5 49.1224479675293,33.5 49.1224479675293,33.5 M55.33444595336914,33.5 C55.33444595336914,33.5 55.33444595336914,0 55.33444595336914,0 C55.33444595336914,0 55.33444595336914,-33.5 55.33444595336914,-33.5 C55.33444595336914,-33.5 49.1224479675293,-33.5 49.1224479675293,-33.5 C49.1224479675293,-33.5 49.1224479675293,33.5 49.1224479675293,33.5"/></g></g><g transform="matrix(1,0,0,1,137.5,272.5)" opacity="1" style="display: none;"><g opacity="1" transform="matrix(1,0,0,1,0,0)"><path stroke-linecap="round" stroke-linejoin="round" fill-opacity="0" class="secondary" stroke="rgb(8,168,138)" stroke-opacity="1" stroke-width="18" d=" M201.09588623046875,33.5 C201.09588623046875,33.5 194.88388061523438,33.5 194.88388061523438,33.5 M201.09588623046875,33.5 C201.09588623046875,33.5 201.09588623046875,-33.5 201.09588623046875,-33.5 C201.09588623046875,-33.5 194.88388061523438,-33.5 194.88388061523438,-33.5 C194.88388061523438,-33.5 194.88388061523438,33.5 194.88388061523438,33.5"/></g></g><g transform="matrix(1,0,0,1,215.5,273.5)" opacity="1" style="display: none;"><g opacity="1" transform="matrix(1,0,0,1,0,0)"><path stroke-linecap="round" stroke-linejoin="round" fill-opacity="0" class="secondary" stroke="rgb(8,168,138)" stroke-opacity="1" stroke-width="18" d=" M179.2327423095703,69.5 C179.2327423095703,69.5 179.2327423095703,2.5 179.2327423095703,2.5 M179.2327423095703,69.5 C179.2327423095703,69.5 179.2327423095703,2.5 179.2327423095703,2.5 M179.2327423095703,69.5 C179.2327423095703,69.5 179.2327423095703,2.5 179.2327423095703,2.5 M179.2327423095703,69.5 C179.2327423095703,69.5 179.2327423095703,2.5 179.2327423095703,2.5 M179.2327423095703,69.5 C179.2327423095703,69.5 179.2327423095703,2.5 179.2327423095703,2.5 M179.2327423095703,69.5 C179.2327423095703,69.5 179.2327423095703,2.5 179.2327423095703,2.5 M179.34814453125,69.5 C179.34814453125,69.5 159.03753662109375,69.5 159.03753662109375,69.5 M159.4991455078125,2.5 C159.4991455078125,2.5 159.4991455078125,-59.73037338256836 159.4991455078125,-59.73037338256836 C159.4991455078125,-59.73037338256836 159.4991455078125,-59.73037338256836 159.4991455078125,-59.73037338256836 C159.4991455078125,-59.73037338256836 159.4991455078125,2.5 159.4991455078125,2.5 M179.34814453125,69.5 C179.34814453125,69.5 179.34814453125,2.5 179.34814453125,2.5 C179.34814453125,2.5 159.03753662109375,2.5 159.03753662109375,2.5 C159.03753662109375,2.5 159.03753662109375,69.5 159.03753662109375,69.5"/></g></g><g transform="matrix(5.275599956512451,0,0,5.275599956512451,583.4199829101562,190.02000427246094)" opacity="1" style="display: none;"><g opacity="1" transform="matrix(1,0,0,1,0,0)"><path stroke-linecap="round" stroke-linejoin="round" fill-opacity="0" class="primary" stroke="rgb(18,19,49)" stroke-opacity="1" stroke-width="3.75" d=" M-94.99366760253906,35.917171478271484 C-94.99366760253906,35.917171478271484 -94.99366760253906,-0.38672712445259094 -94.99366760253906,-0.38672712445259094"/></g></g><g transform="matrix(5.275599956512451,0,0,5.275599956512451,325.0899963378906,190.02000427246094)" opacity="1" style="display: none;"><g opacity="1" transform="matrix(1,0,0,1,0,0)"><path stroke-linecap="round" stroke-linejoin="round" fill-opacity="0" class="primary" stroke="rgb(18,19,49)" stroke-opacity="1" stroke-width="3.6750000000000003" d=" M-19.393186569213867,-25.298355102539062 C-19.393186569213867,-25.298355102539062 10.950446128845215,3.2771575450897217 10.950446128845215,3.2771575450897217"/></g><g opacity="1" transform="matrix(1,0,0,1,0,0)"><path stroke-linecap="round" stroke-linejoin="round" fill-opacity="0" class="primary" stroke="rgb(18,19,49)" stroke-opacity="1" stroke-width="3.6750000000000003" d=" M-44.318565368652344,35.9118537902832 C-44.318565368652344,35.9118537902832 5.30571985244751,35.911739349365234 5.30571985244751,35.911739349365234 C5.30571985244751,35.911739349365234 5.29824686050415,-1.7878128290176392 5.29824686050415,-1.7878128290176392 C5.29824686050415,-1.7878128290176392 5.29824686050415,-1.9125866889953613 5.29824686050415,-1.9125866889953613"/></g></g><g transform="matrix(1,0,0,1,215.5,273.5)" opacity="1" style="display: none;"><g opacity="1" transform="matrix(1,0,0,1,0,0)"><path stroke-linecap="round" stroke-linejoin="round" fill-opacity="0" class="secondary" stroke="rgb(8,168,138)" stroke-opacity="1" stroke-width="18" d=" M-47.95064926147461,69.5 C-47.95064926147461,69.5 -47.95064926147461,2.5 -47.95064926147461,2.5 M-27.179750442504883,69.5 C-27.179750442504883,69.5 -27.179750442504883,2.5 -27.179750442504883,2.5 M-5.444798469543457,69.5 C-5.444798469543457,69.5 -5.444798469543457,2.5 -5.444798469543457,2.5 M17.278392791748047,69.5 C17.278392791748047,69.5 17.278392791748047,2.5 17.278392791748047,2.5 M39.013572692871094,69.5 C39.013572692871094,69.5 39.013572692871094,2.5 39.013572692871094,2.5 M60.798004150390625,69.5 C60.798004150390625,69.5 60.798004150390625,2.5 60.798004150390625,2.5 M81.54328918457031,69.5 C81.54328918457031,69.5 -69.69617462158203,69.5 -69.69617462158203,69.5 M44.981544494628906,2.5 C44.981544494628906,2.5 44.981544494628906,-69.21725463867188 44.981544494628906,-69.21725463867188 C44.981544494628906,-69.21725463867188 -36.64337921142578,-69.21725463867188 -36.64337921142578,-69.21725463867188 C-36.64337921142578,-69.21725463867188 -36.64337921142578,2.5 -36.64337921142578,2.5 M81.54328918457031,69.5 C81.54328918457031,69.5 81.54328918457031,2.5 81.54328918457031,2.5 C81.54328918457031,2.5 -69.69617462158203,2.5 -69.69617462158203,2.5 C-69.69617462158203,2.5 -69.69617462158203,69.5 -69.69617462158203,69.5"/></g></g><g transform="matrix(5.275599956512451,0,0,5.275599956512451,583.4199829101562,190.02000427246094)" opacity="1" style="display: none;"><g opacity="1" transform="matrix(1,0,0,1,0,0)"><path stroke-linecap="round" stroke-linejoin="round" fill-opacity="0" class="primary" stroke="rgb(18,19,49)" stroke-opacity="1" stroke-width="3.75" d=" M-48.93981170654297,35.925636291503906 C-48.93981170654297,35.925636291503906 -43.113746643066406,35.8958740234375 -43.113746643066406,35.8958740234375 C-43.113746643066406,35.8958740234375 -43.113746643066406,3.289565086364746 -43.113746643066406,3.289565086364746"/></g></g><g transform="matrix(5.275599956512451,0,0,5.275599956512451,583.4199829101562,190.02000427246094)" opacity="1" style="display: none;"><g opacity="1" transform="matrix(1,0,0,1,0,0)"><path stroke-linecap="round" stroke-linejoin="round" fill-opacity="0" class="primary" stroke="rgb(18,19,49)" stroke-opacity="1" stroke-width="3.75" d=" M-78.86023712158203,-17.64373779296875 C-78.86023712158203,-17.64373779296875 -70.40435791015625,-25.24063491821289 -70.40435791015625,-25.24063491821289 M-101.09615325927734,3.2311666011810303 C-101.09615325927734,3.2311666011810303 -88.20559692382812,-8.914780616760254 -88.20559692382812,-8.914780616760254"/></g></g><g transform="matrix(5.275599956512451,0,0,5.275599956512451,325.0899963378906,190.02000427246094)" opacity="1" style="display: none;"><g opacity="0" transform="matrix(1,0,0,1,0,0)"><path stroke-linecap="round" stroke-linejoin="round" fill-opacity="0" class="secondary" stroke="rgb(8,168,138)" stroke-opacity="1" stroke-width="3.6750000000000003" d=" M-27.183000564575195,-14.454999923706055 C-27.183000564575195,-14.454999923706055 -27.183000564575195,-18.768999099731445 -27.183000564575195,-18.768999099731445 C-27.183000564575195,-18.768999099731445 -27.25200080871582,-18.768999099731445 -27.25200080871582,-18.768999099731445 C-27.25200080871582,-18.768999099731445 -27.25200080871582,-8.24899959564209 -27.25200080871582,-8.24899959564209"/></g><g opacity="1" transform="matrix(1,0,0,1,0,0)"><path stroke-linecap="round" stroke-linejoin="round" fill-opacity="0" class="secondary" stroke="rgb(8,168,138)" stroke-opacity="1" stroke-width="3.6750000000000003" d="M0 0"/></g><g opacity="0" transform="matrix(1,0,0,1,0,0)"><path stroke-linecap="round" stroke-linejoin="round" fill-opacity="0" class="secondary" stroke="rgb(8,168,138)" stroke-opacity="1" stroke-width="3.6750000000000003" d=" M-38.78300094604492,-6.558000087738037 C-38.78300094604492,-6.558000087738037 -38.80500030517578,-20.690000534057617 -38.80500030517578,-20.690000534057617 C-38.80500030517578,-20.690000534057617 -38.68600082397461,-20.634000778198242 -38.68600082397461,-20.634000778198242 C-38.68600082397461,-20.634000778198242 -38.65599822998047,-6.461999893188477 -38.65599822998047,-6.461999893188477"/></g></g><g transform="matrix(5.275599956512451,0,0,5.275599956512451,583.4199829101562,190.02000427246094)" opacity="1" style="display: none;"><g opacity="1" transform="matrix(1,0,0,1,0,0)"><path stroke-linecap="round" stroke-linejoin="round" fill-opacity="0" class="primary" stroke="rgb(18,19,49)" stroke-opacity="1" stroke-width="3.75" d=" M-49.57699966430664,-8.970000267028809 C-43.09000015258789,-2.571000099182129 -37.16899871826172,3.2679998874664307 -37.16899871826172,3.2679998874664307 C-37.16874694824219,3.268496513366699 -43.24092483520508,3.3011326789855957 -43.24092483520508,3.3011326789855957 M-72.20233917236328,-25.35411834716797 C-72.20233917236328,-25.35411834716797 -66.13188934326172,-25.298006057739258 -66.13188934326172,-25.298006057739258 C-66.13200378417969,-25.29800033569336 -63.867000579833984,-23.065000534057617 -60.60499954223633,-19.847000122070312"/></g></g><g transform="matrix(5.275599956512451,0,0,5.275599956512451,325.0899963378906,190.02000427246094)" opacity="1" style="display: none;"><g opacity="1" transform="matrix(1,0,0,1,0,0)"><path stroke-linecap="round" stroke-linejoin="round" fill-opacity="0" class="secondary" stroke="rgb(8,168,138)" stroke-opacity="1" stroke-width="3.6750000000000003" d=" M-11.113697052001953,-16.08078384399414 C-11.113697052001953,-16.08078384399414 -11.113697052001953,-21.872783660888672 -11.113697052001953,-21.872783660888672 C-11.113697052001953,-21.872783660888672 -2.569589376449585,-21.872783660888672 -2.569589376449585,-21.872783660888672 C-2.569589376449585,-21.872783660888672 -2.569589376449585,-8.109893798828125 -2.569589376449585,-8.109893798828125"/></g><g opacity="0" transform="matrix(1,0,0,1,0,0)"><path stroke-linecap="round" stroke-linejoin="round" fill-opacity="0" class="secondary" stroke="rgb(8,168,138)" stroke-opacity="1" stroke-width="3.6750000000000003" d=" M-14.814000129699707,-14.5 C-14.814000129699707,-14.5 -14.814000129699707,-18.815000534057617 -14.814000129699707,-18.815000534057617 C-14.814000129699707,-18.815000534057617 -14.883000373840332,-18.815000534057617 -14.883000373840332,-18.815000534057617 C-14.883000373840332,-18.815000534057617 -14.883000373840332,-8.295000076293945 -14.883000373840332,-8.295000076293945"/></g><g opacity="1" transform="matrix(1,0,0,1,0,0)"><path stroke-linecap="round" stroke-linejoin="round" fill-opacity="0" class="secondary" stroke="rgb(8,168,138)" stroke-opacity="1" stroke-width="3.6750000000000003" d=" M-2.5821456909179688,-8.197158813476562 C-2.5821456909179688,-8.197158813476562 -2.569330930709839,-21.824115753173828 -2.569330930709839,-21.824115753173828 C-2.569330930709839,-21.824115753173828 -1.0692262649536133,-21.82573127746582 -1.0692262649536133,-21.82573127746582 C-1.0692262649536133,-21.82573127746582 -1.0692262649536133,-8.114974021911621 -1.0692262649536133,-8.114974021911621"/></g></g><g transform="matrix(5.275599956512451,0,0,5.275599956512451,325.0899963378906,190.02000427246094)" opacity="1" style="display: none;"><g opacity="1" transform="matrix(1,0,0,1,0,0)"><path stroke-linecap="round" stroke-linejoin="round" fill-opacity="0" class="secondary" stroke="rgb(8,168,138)" stroke-opacity="1" stroke-width="3.6750000000000003" d=" M-9.927000045776367,-16.43600082397461 C-9.927000045776367,-16.43600082397461 -9.927000045776367,-22.22800064086914 -9.927000045776367,-22.22800064086914 C-9.926820755004883,-22.228452682495117 -0.9918208122253418,-22.228452682495117 -0.9918208122253418,-22.228452682495117 C-0.9919999837875366,-22.22800064086914 -0.9919999837875366,-8.32699966430664 -0.9919999837875366,-8.107999801635742"/></g></g><g transform="matrix(5.275599956512451,0,0,5.275599956512451,325.0899963378906,190.02000427246094)" opacity="1" style="display: none;"><g opacity="1" transform="matrix(1,0,0,1,0,0)"><path stroke-linecap="round" stroke-linejoin="round" fill-opacity="0" class="secondary" stroke="rgb(8,168,138)" stroke-opacity="1" stroke-width="3.6750000000000003" d=" M-31.1023006439209,35.91699981689453 C-31.1023006439209,35.91699981689453 -31.1023006439209,9.715999603271484 -31.1023006439209,9.715999603271484 C-31.1023006439209,9.715999603271484 -16.11760902404785,9.715999603271484 -16.11760902404785,9.715999603271484 C-16.11760902404785,9.715999603271484 -16.11760902404785,35.91699981689453 -16.11760902404785,35.91699981689453"/></g><g opacity="1" transform="matrix(1,0,0,1,0,0)"><path stroke-linecap="round" stroke-linejoin="round" fill-opacity="0" class="primary" stroke="rgb(18,19,49)" stroke-opacity="1" stroke-width="3.6750000000000003" d=" M-53.16162872314453,3.2839999198913574 C-53.16162872314453,3.2839999198913574 -23.609954833984375,-25.29400062561035 -23.609954833984375,-25.29400062561035 C-23.609954833984375,-25.29400062561035 5.525825023651123,3.2839999198913574 5.525825023651123,3.2839999198913574"/></g><g opacity="1" transform="matrix(1,0,0,1,0,0)"><path stroke-linecap="round" stroke-linejoin="round" fill-opacity="0" class="primary" stroke="rgb(18,19,49)" stroke-opacity="1" stroke-width="3.6750000000000003" d=" M-47.613243103027344,-1.4169418811798096 C-47.613243103027344,-1.4169418811798096 -47.613243103027344,-1.306571125984192 -47.613243103027344,-1.306571125984192 C-47.613243103027344,-1.306571125984192 -47.614540100097656,35.91699981689453 -47.614540100097656,35.91699981689453 C-47.614540100097656,35.91699981689453 0.08943165093660355,35.91699981689453 0.08943165093660355,35.91699981689453 C0.08943165093660355,35.91699981689453 0.08080251514911652,-1.9755693674087524 0.08080251514911652,-1.9755693674087524"/></g></g><g transform="matrix(5.275599956512451,0,0,5.275599956512451,325.0899963378906,190.02000427246094)" opacity="1" style="display: none;"><g opacity="1" transform="matrix(1,0,0,1,0,0)"><path stroke-linecap="round" stroke-linejoin="round" fill-opacity="0" class="primary" stroke="rgb(18,19,49)" stroke-opacity="1" stroke-width="3.6750000000000003" d=" M-50.572261810302734,3.5387930870056152 C-50.572261810302734,3.5387930870056152 -50.572261810302734,3.6337928771972656 -50.572261810302734,3.6337928771972656 C-50.572261810302734,3.6337928771972656 -50.574195861816406,35.680999755859375 -50.574195861816406,35.680999755859375"/></g></g><g transform="matrix(5.275599956512451,0,0,5.275599956512451,325.0899963378906,190.02000427246094)" opacity="1" style="display: none;"><g opacity="1" transform="matrix(1,0,0,1,0,0)"><path stroke-linecap="round" stroke-linejoin="round" fill-opacity="0" class="secondary" stroke="rgb(8,168,138)" stroke-opacity="1" stroke-width="3.6750000000000003" d=" M-28.239137649536133,35.9169807434082 C-28.239137649536133,35.9169807434082 -28.239137649536133,9.715980529785156 -28.239137649536133,9.715980529785156 C-28.239137649536133,9.715980529785156 -12.38581371307373,9.715980529785156 -12.38581371307373,9.715980529785156 C-12.38581371307373,9.715980529785156 -12.38581371307373,35.9169807434082 -12.38581371307373,35.9169807434082"/></g></g><g transform="matrix(1,0,0,1,215.5,273.5)" opacity="1" style="display: none;"><g opacity="1" transform="matrix(1,0,0,1,0,0)"><path stroke-linecap="round" stroke-linejoin="round" fill-opacity="0" class="secondary" stroke="rgb(8,168,138)" stroke-opacity="1" stroke-width="18" d=" M-167.43800354003906,69.5 C-167.43800354003906,69.5 -167.43800354003906,2.5 -167.43800354003906,2.5 M-167.43800354003906,69.5 C-167.43800354003906,69.5 -167.43800354003906,2.5 -167.43800354003906,2.5 M-167.43800354003906,69.5 C-167.43800354003906,69.5 -167.43800354003906,2.5 -167.43800354003906,2.5 M-167.43800354003906,69.5 C-167.43800354003906,69.5 -167.43800354003906,2.5 -167.43800354003906,2.5 M-167.43800354003906,69.5 C-167.43800354003906,69.5 -167.43800354003906,2.5 -167.43800354003906,2.5 M-167.43800354003906,69.5 C-167.43800354003906,69.5 -167.43800354003906,2.5 -167.43800354003906,2.5 M-167.6820068359375,69.5 C-167.6820068359375,69.5 -167.43800354003906,69.5 -167.43800354003906,69.5 M-167.68800354003906,2.5 C-167.68800354003906,2.5 -167.68800354003906,-62.75 -167.68800354003906,-62.75 C-167.68800354003906,-62.75 -167.68499755859375,-62.75 -167.68499755859375,-62.75 C-167.68499755859375,-62.75 -167.68499755859375,2.5 -167.68499755859375,2.5 M-167.6820068359375,69.5 C-167.6820068359375,69.5 -167.6820068359375,2.5 -167.6820068359375,2.5 C-167.6820068359375,2.5 -167.43800354003906,2.5 -167.43800354003906,2.5 C-167.43800354003906,2.5 -167.43800354003906,69.5 -167.43800354003906,69.5"/></g></g><g transform="matrix(1,0,0,1,294.5,272.5)" opacity="1" style="display: none;"><g opacity="1" transform="matrix(1,0,0,1,0,0)"><path stroke-linecap="round" stroke-linejoin="round" fill-opacity="0" class="secondary" stroke="rgb(8,168,138)" stroke-opacity="1" stroke-width="18" d=" M-210.48672485351562,33.5 C-210.48672485351562,33.5 -210.49156188964844,33.5 -210.49156188964844,33.5 M-210.48672485351562,33.5 C-210.48672485351562,33.5 -210.48672485351562,0 -210.48672485351562,0 C-210.48672485351562,0 -210.48672485351562,-33.5 -210.48672485351562,-33.5 C-210.48672485351562,-33.5 -210.49156188964844,-33.5 -210.49156188964844,-33.5 C-210.49156188964844,-33.5 -210.49156188964844,33.5 -210.49156188964844,33.5"/></g></g><g transform="matrix(1,0,0,1,137.5,272.5)" opacity="1" style="display: none;"><g opacity="1" transform="matrix(1,0,0,1,0,0)"><path stroke-linecap="round" stroke-linejoin="round" fill-opacity="0" class="secondary" stroke="rgb(8,168,138)" stroke-opacity="1" stroke-width="18" d=" M-54.49653625488281,33.5 C-54.49653625488281,33.5 -54.50136947631836,33.5 -54.50136947631836,33.5 M-54.49653625488281,33.5 C-54.49653625488281,33.5 -54.49653625488281,-33.5 -54.49653625488281,-33.5 C-54.49653625488281,-33.5 -54.50136947631836,-33.5 -54.50136947631836,-33.5 C-54.50136947631836,-33.5 -54.50136947631836,33.5 -54.50136947631836,33.5"/></g></g><g transform="matrix(5.275599956512451,0,0,5.275599956512451,583.4199829101562,190.02000427246094)" opacity="1" style="display: none;"><g opacity="1" transform="matrix(1,0,0,1,0,0)"><path stroke-linecap="round" stroke-linejoin="round" fill-opacity="0" class="primary" stroke="rgb(18,19,49)" stroke-opacity="1" stroke-width="3.75" d=" M-94.6089859008789,35.91999435424805 C-94.6089859008789,35.91999435424805 -94.6089859008789,-1.8273131847381592 -94.6089859008789,-1.8273131847381592"/></g></g><g transform="matrix(5.275599956512451,0,0,5.275599956512451,325.0899963378906,190.02000427246094)" opacity="1" style="display: none;"><g opacity="1" transform="matrix(1,0,0,1,0,0)"><path stroke-linecap="round" stroke-linejoin="round" fill-opacity="0" class="primary" stroke="rgb(18,19,49)" stroke-opacity="1" stroke-width="3.6750000000000003" d=" M-20.312646865844727,-25.294010162353516 C-20.312646865844727,-25.294010162353516 10.51212215423584,3.283982515335083 10.51212215423584,3.283982515335083"/></g><g opacity="1" transform="matrix(1,0,0,1,0,0)"><path stroke-linecap="round" stroke-linejoin="round" fill-opacity="0" class="primary" stroke="rgb(18,19,49)" stroke-opacity="1" stroke-width="3.6750000000000003" d=" M-45.70844268798828,35.916988372802734 C-45.70844268798828,35.916988372802734 4.760395526885986,35.916988372802734 4.760395526885986,35.916988372802734 C4.760395526885986,35.916988372802734 4.751399517059326,-1.8677953481674194 4.751399517059326,-1.8677953481674194 C4.751399517059326,-1.8677953481674194 4.751399517059326,-1.9927947521209717 4.751399517059326,-1.9927947521209717"/></g></g><g transform="matrix(5.275599956512451,0,0,5.275599956512451,583.4199829101562,190.02000427246094)" opacity="1" style="display: none;"><g opacity="1" transform="matrix(1,0,0,1,0,0)"><path stroke-linecap="round" stroke-linejoin="round" fill-opacity="0" class="primary" stroke="rgb(18,19,49)" stroke-opacity="1" stroke-width="3.75" d=" M-94.7057113647461,35.94099044799805 C-94.7057113647461,35.94099044799805 -94.74644470214844,35.84000015258789 -94.74644470214844,35.84000015258789 C-94.74644470214844,35.84000015258789 -94.74644470214844,-1.3420675992965698 -94.74644470214844,-1.3420675992965698"/></g></g><g transform="matrix(5.275599956512451,0,0,5.275599956512451,583.4199829101562,190.02000427246094)" opacity="1" style="display: none;"><g opacity="1" transform="matrix(1,0,0,1,0,0)"><path stroke-linecap="round" stroke-linejoin="round" fill-opacity="0" class="primary" stroke="rgb(18,19,49)" stroke-opacity="1" stroke-width="3.75" d=" M-69.21943664550781,-25.357999801635742 C-69.21943664550781,-25.357999801635742 -69.25466918945312,-25.305994033813477 -69.25466918945312,-25.305994033813477 C-69.25466918945312,-25.305994033813477 -100.36322021484375,3.1280064582824707 -100.36322021484375,3.1280064582824707 C-100.36322021484375,3.1280064582824707 -100.3690185546875,3.1290299892425537 -100.3690185546875,3.1290299892425537"/></g></g><g transform="matrix(5.275599956512451,0,0,5.275599956512451,583.4199829101562,190.02000427246094)" opacity="1" style="display: none;"><g opacity="1" transform="matrix(1,0,0,1,0,0)"><path stroke-linecap="round" stroke-linejoin="round" fill-opacity="0" class="primary" stroke="rgb(18,19,49)" stroke-opacity="1" stroke-width="3.75" d=" M-100.72195434570312,3.22601318359375 C-100.72195434570312,3.22601318359375 -69.35246276855469,-25.328004837036133 -69.35246276855469,-25.328004837036133"/></g></g><g transform="matrix(5.275599956512451,0,0,5.275599956512451,325.0899963378906,190.02000427246094)" opacity="1" style="display: none;"><g opacity="1" transform="matrix(1,0,0,1,0,0)"><path stroke-linecap="round" stroke-linejoin="round" fill-opacity="0" class="primary" stroke="rgb(18,19,49)" stroke-opacity="1" stroke-width="3.6750000000000003" d=" M-50.574195861816406,35.680999755859375 C-50.574195861816406,35.680999755859375 -50.68367385864258,35.680999755859375 -50.68367385864258,35.680999755859375 C-50.68367385864258,35.680999755859375 -50.681739807128906,3.596532106399536 -50.681739807128906,3.596532106399536"/></g></g><g transform="matrix(5.275599956512451,0,0,5.275599956512451,325.0899963378906,190.02000427246094)" opacity="1" style="display: none;"><g opacity="1" transform="matrix(1,0,0,1,0,0)"><path stroke-linecap="round" stroke-linejoin="round" fill-opacity="0" class="primary" stroke="rgb(18,19,49)" stroke-opacity="1" stroke-width="3.6750000000000003" d=" M-56.145381927490234,3.25620698928833 C-56.145381927490234,3.25620698928833 -45.77866744995117,-25.554256439208984 -45.77866744995117,-25.554256439208984 C-45.77866744995117,-25.554256439208984 -56.28041458129883,3.25620698928833 -56.28041458129883,3.25620698928833"/></g></g><g transform="matrix(5.275599956512451,0,0,5.275599956512451,325.0899963378906,190.02000427246094)" opacity="1" style="display: block;"><g opacity="1" transform="matrix(1,0,0,1,0,0)"><path stroke-linecap="round" stroke-linejoin="round" fill-opacity="0" class="secondary" stroke="rgb(8,168,138)" stroke-opacity="1" stroke-width="3.6750000000000003" d=" M-9.925999641418457,-16.437000274658203 C-9.925999641418457,-16.437000274658203 -9.925999641418457,-22.229000091552734 -9.925999641418457,-22.229000091552734 C-9.925999641418457,-22.229000091552734 -0.9909999966621399,-22.229000091552734 -0.9909999966621399,-22.229000091552734 C-0.9909999966621399,-22.229000091552734 -0.9909999966621399,-8.105999946594238 -0.9909999966621399,-8.105999946594238 C-0.9909999966621399,-8.105999946594238 -1.055999994277954,-8.166999816894531 -1.055999994277954,-8.166999816894531"/></g><g opacity="1" transform="matrix(1,0,0,1,0,0)"><path stroke-linecap="round" stroke-linejoin="round" fill-opacity="0" class="secondary" stroke="rgb(8,168,138)" stroke-opacity="1" stroke-width="3.6750000000000003" d=" M-28.242000579833984,35.91699981689453 C-28.242000579833984,35.91699981689453 -28.242000579833984,9.715999603271484 -28.242000579833984,9.715999603271484 C-28.242000579833984,9.715999603271484 -12.387999534606934,9.715999603271484 -12.387999534606934,9.715999603271484 C-12.387999534606934,9.715999603271484 -12.387999534606934,35.91699981689453 -12.387999534606934,35.91699981689453"/></g><g opacity="1" transform="matrix(1,0,0,1,0,0)"><path stroke-linecap="round" stroke-linejoin="round" fill-opacity="0" class="secondary" stroke="rgb(8,168,138)" stroke-opacity="0" stroke-width="3.6750000000000003" d=" M-51.58100128173828,3.2839999198913574 C-51.58100128173828,3.2839999198913574 -20.315000534057617,-25.29400062561035 -20.315000534057617,-25.29400062561035 M-20.315000534057617,-25.29400062561035 C-20.315000534057617,-25.29400062561035 10.51099967956543,3.2839999198913574 10.51099967956543,3.2839999198913574 M-45.71200180053711,-1.2940000295639038 C-45.71200180053711,-1.2940000295639038 -45.71200180053711,-1.184000015258789 -45.71200180053711,-1.184000015258789 C-45.71200180053711,-1.184000015258789 -45.71200180053711,35.91699981689453 -45.71200180053711,35.91699981689453 C-45.71200180053711,35.91699981689453 4.758999824523926,35.91699981689453 4.758999824523926,35.91699981689453 C4.758999824523926,35.91699981689453 4.75,-1.9930000305175781 4.75,-1.9930000305175781"/><path stroke-linecap="round" stroke-linejoin="round" fill-opacity="0" class="primary" stroke="rgb(18,19,49)" stroke-opacity="1" stroke-width="3.6750000000000003" d=" M-51.58100128173828,3.2839999198913574 C-51.58100128173828,3.2839999198913574 -20.315000534057617,-25.29400062561035 -20.315000534057617,-25.29400062561035 M-20.315000534057617,-25.29400062561035 C-20.315000534057617,-25.29400062561035 10.51099967956543,3.2839999198913574 10.51099967956543,3.2839999198913574 M-45.71200180053711,-1.2940000295639038 C-45.71200180053711,-1.2940000295639038 -45.71200180053711,-1.184000015258789 -45.71200180053711,-1.184000015258789 C-45.71200180053711,-1.184000015258789 -45.71200180053711,35.91699981689453 -45.71200180053711,35.91699981689453 C-45.71200180053711,35.91699981689453 4.758999824523926,35.91699981689453 4.758999824523926,35.91699981689453 C4.758999824523926,35.91699981689453 4.75,-1.9930000305175781 4.75,-1.9930000305175781"/></g></g><g transform="matrix(5.275599956512451,0,0,5.275599956512451,325.0899963378906,190.02000427246094)" opacity="1" style="display: none;"><g opacity="1" transform="matrix(1,0,0,1,0,0)"><path stroke-linecap="round" stroke-linejoin="round" fill-opacity="0" class="primary" stroke="rgb(18,19,49)" stroke-opacity="1" stroke-width="3.6750000000000003" d=" M-51.58100128173828,3.2839999198913574 C-51.58100128173828,3.2839999198913574 -20.315000534057617,-25.29400062561035 -20.315000534057617,-25.29400062561035 M-20.315000534057617,-25.29400062561035 C-20.315000534057617,-25.29400062561035 10.51099967956543,3.2839999198913574 10.51099967956543,3.2839999198913574 M-45.71200180053711,-1.2940000295639038 C-45.71200180053711,-1.2940000295639038 -45.71200180053711,-1.184000015258789 -45.71200180053711,-1.184000015258789 C-45.71200180053711,-1.184000015258789 -45.71200180053711,35.91699981689453 -45.71200180053711,35.91699981689453 C-45.71200180053711,35.91699981689453 4.758999824523926,35.91699981689453 4.758999824523926,35.91699981689453 C4.758999824523926,35.91699981689453 4.75,-1.9930000305175781 4.75,-1.9930000305175781"/></g></g></g></g><clipPath id="__lottie_element_12"><path d="M0,0 L430,0 L430,430 L0,430z"/></clipPath><mask id="__lottie_element_11_1" mask-type="alpha"><use xmlns:ns1="http://www.w3.org/1999/xlink" ns1:href="#__lottie_element_11"/></mask></defs><g clip-path="url(#__lottie_element_2)"><g clip-path="url(#__lottie_element_4)" transform="matrix(1,0,0,1,0,0)" opacity="1" style="display: block;"><g mask="url(#__lottie_element_11_1)" style="display: block;"><g filter="url(#__lottie_element_10)" transform="matrix(-0.1674155443906784,-2.3941538333892822,2.3941538333892822,-0.1674155443906784,271.9410095214844,220.4600067138672)" opacity="1"><g class="design" opacity="1" transform="matrix(1,0,0,1,0,0)"><path class="primary" fill="rgb(16,145,32)" fill-opacity="1" d=" M0,-250 C137.97500610351562,-250 250,-137.97500610351562 250,0 C250,137.97500610351562 137.97500610351562,250 0,250 C-137.97500610351562,250 -250,137.97500610351562 -250,0 C-250,-137.97500610351562 -137.97500610351562,-250 0,-250z"/></g><g class="design" opacity="1" transform="matrix(1,0,0,1,113.24199676513672,-118.88400268554688)"><path class="secondary" fill="rgb(27,16,145)" fill-opacity="1" d=" M0,-176.5 C97.47799682617188,-176.5 176.5,-97.47799682617188 176.5,0 C176.5,97.47799682617188 97.47799682617188,176.5 0,176.5 C-43.948001861572266,176.5 -74.39600372314453,142.4429931640625 -105.29000091552734,115.86900329589844 C-142.92100524902344,83.5 -176.5,53.53099822998047 -176.5,0 C-176.5,-97.47799682617188 -97.47799682617188,-176.5 0,-176.5z"/></g></g></g></g></g></svg>