<svg xmlns="http://www.w3.org/2000/svg" xmlns:xlink="http://www.w3.org/1999/xlink" viewBox="0 0 430 430" width="430" height="430" preserveAspectRatio="xMidYMid meet" style="width: 100%; height: 100%; transform: translate3d(0px, 0px, 0px); content-visibility: visible;"><defs><clipPath id="__lottie_element_2"><rect width="430" height="430" x="0" y="0"/></clipPath><clipPath id="__lottie_element_4"><path d="M0,0 L430,0 L430,430 L0,430z"/></clipPath><filter id="__lottie_element_10" x="-100%" y="-100%" width="300%" height="300%"><feGaussianBlur result="filter_result_0" stdDeviation="52.5 52.5" edgeMode="wrap"/></filter><g id="__lottie_element_11"><g clip-path="url(#__lottie_element_12)" transform="matrix(1,0,0,1,0,0)" opacity="1" style="display: block;"><g transform="matrix(1,0,0,1,294.5,272.5)" opacity="1" style="display: none;"><g opacity="1" transform="matrix(1,0,0,1,0,0)"><path stroke-linecap="round" stroke-linejoin="round" fill-opacity="0" class="secondary" stroke="rgb(8,168,138)" stroke-opacity="1" stroke-width="12" d=" M-205.24832153320312,33.5 C-205.24832153320312,33.5 -207.16061401367188,33.5 -207.16061401367188,33.5 M-205.24832153320312,33.5 C-205.24832153320312,33.5 -205.24832153320312,0 -205.24832153320312,0 C-205.24832153320312,0 -205.24832153320312,-33.5 -205.24832153320312,-33.5 C-205.24832153320312,-33.5 -207.16061401367188,-33.5 -207.16061401367188,-33.5 C-207.16061401367188,-33.5 -207.16061401367188,33.5 -207.16061401367188,33.5"/></g></g><g transform="matrix(1,0,0,1,137.5,272.5)" opacity="1" style="display: none;"><g opacity="1" transform="matrix(1,0,0,1,0,0)"><path stroke-linecap="round" stroke-linejoin="round" fill-opacity="0" class="secondary" stroke="rgb(8,168,138)" stroke-opacity="1" stroke-width="12" d=" M-53.12999725341797,33.5 C-53.12999725341797,33.5 -55.042293548583984,33.5 -55.042293548583984,33.5 M-53.12999725341797,33.5 C-53.12999725341797,33.5 -53.12999725341797,-33.5 -53.12999725341797,-33.5 C-53.12999725341797,-33.5 -55.042293548583984,-33.5 -55.042293548583984,-33.5 C-55.042293548583984,-33.5 -55.042293548583984,33.5 -55.042293548583984,33.5"/></g></g><g transform="matrix(1,0,0,1,215.5,273.5)" opacity="1" style="display: none;"><g opacity="1" transform="matrix(1,0,0,1,0,0)"><path stroke-linecap="round" stroke-linejoin="round" fill-opacity="0" class="secondary" stroke="rgb(8,168,138)" stroke-opacity="1" stroke-width="12" d=" M179.24267578125,69.5 C179.24267578125,69.5 179.24267578125,2.5 179.24267578125,2.5 M179.24267578125,69.5 C179.24267578125,69.5 179.24267578125,2.5 179.24267578125,2.5 M179.24267578125,69.5 C179.24267578125,69.5 179.24267578125,2.5 179.24267578125,2.5 M179.24267578125,69.5 C179.24267578125,69.5 179.24267578125,2.5 179.24267578125,2.5 M179.24267578125,69.5 C179.24267578125,69.5 179.24267578125,2.5 179.24267578125,2.5 M179.24267578125,69.5 C179.24267578125,69.5 179.24267578125,2.5 179.24267578125,2.5 M179.35816955566406,69.5 C179.35816955566406,69.5 159.03285217285156,69.5 159.03285217285156,69.5 M159.4947967529297,2.5 C159.4947967529297,2.5 159.4947967529297,-59.72836685180664 159.4947967529297,-59.72836685180664 C159.4947967529297,-59.72836685180664 159.4947967529297,-59.72836685180664 159.4947967529297,-59.72836685180664 C159.4947967529297,-59.72836685180664 159.4947967529297,2.5 159.4947967529297,2.5 M179.35816955566406,69.5 C179.35816955566406,69.5 179.35816955566406,2.5 179.35816955566406,2.5 C179.35816955566406,2.5 159.03285217285156,2.5 159.03285217285156,2.5 C159.03285217285156,2.5 159.03285217285156,69.5 159.03285217285156,69.5"/></g></g><g transform="matrix(5.275599956512451,0,0,5.275599956512451,583.4199829101562,190.02000427246094)" opacity="1" style="display: none;"><g opacity="1" transform="matrix(1,0,0,1,0,0)"><path stroke-linecap="round" stroke-linejoin="round" fill-opacity="0" class="primary" stroke="rgb(18,19,49)" stroke-opacity="1" stroke-width="2.5" d=" M-94.99730682373047,35.917144775390625 C-94.99730682373047,35.917144775390625 -94.99730682373047,-0.373087078332901 -94.99730682373047,-0.373087078332901"/></g></g><g transform="matrix(5.275599956512451,0,0,5.275599956512451,325.0899963378906,190.02000427246094)" opacity="1" style="display: none;"><g opacity="1" transform="matrix(1,0,0,1,0,0)"><path stroke-linecap="round" stroke-linejoin="round" fill-opacity="0" class="primary" stroke="rgb(18,19,49)" stroke-opacity="1" stroke-width="2.45" d=" M-19.38448143005371,-25.29839515686035 C-19.38448143005371,-25.29839515686035 10.954595565795898,3.277092933654785 10.954595565795898,3.277092933654785"/></g><g opacity="1" transform="matrix(1,0,0,1,0,0)"><path stroke-linecap="round" stroke-linejoin="round" fill-opacity="0" class="primary" stroke="rgb(18,19,49)" stroke-opacity="1" stroke-width="2.45" d=" M-44.30540466308594,35.91180419921875 C-44.30540466308594,35.91180419921875 5.310883522033691,35.91168975830078 5.310883522033691,35.91168975830078 C5.310883522033691,35.91168975830078 5.303424835205078,-1.7870556116104126 5.303424835205078,-1.7870556116104126 C5.303424835205078,-1.7870556116104126 5.303424835205078,-1.9118272066116333 5.303424835205078,-1.9118272066116333"/></g></g><g transform="matrix(1,0,0,1,215.5,273.5)" opacity="1" style="display: none;"><g opacity="1" transform="matrix(1,0,0,1,0,0)"><path stroke-linecap="round" stroke-linejoin="round" fill-opacity="0" class="secondary" stroke="rgb(8,168,138)" stroke-opacity="1" stroke-width="12" d=" M-47.87935256958008,69.5 C-47.87935256958008,69.5 -47.87935256958008,2.5 -47.87935256958008,2.5 M-27.12006187438965,69.5 C-27.12006187438965,69.5 -27.12006187438965,2.5 -27.12006187438965,2.5 M-5.387611389160156,69.5 C-5.387611389160156,69.5 -5.387611389160156,2.5 -5.387611389160156,2.5 M17.332963943481445,69.5 C17.332963943481445,69.5 17.332963943481445,2.5 17.332963943481445,2.5 M39.065643310546875,69.5 C39.065643310546875,69.5 39.065643310546875,2.5 39.065643310546875,2.5 M60.84804153442383,69.5 C60.84804153442383,69.5 60.84804153442383,2.5 60.84804153442383,2.5 M81.58147430419922,69.5 C81.58147430419922,69.5 -69.62247467041016,69.5 -69.62247467041016,69.5 M45.023868560791016,2.5 C45.023868560791016,2.5 45.023868560791016,-69.21458435058594 45.023868560791016,-69.21458435058594 C45.023868560791016,-69.21458435058594 -36.5786247253418,-69.21458435058594 -36.5786247253418,-69.21458435058594 C-36.5786247253418,-69.21458435058594 -36.5786247253418,2.5 -36.5786247253418,2.5 M81.58147430419922,69.5 C81.58147430419922,69.5 81.58147430419922,2.5 81.58147430419922,2.5 C81.58147430419922,2.5 -69.62247467041016,2.5 -69.62247467041016,2.5 C-69.62247467041016,2.5 -69.62247467041016,69.5 -69.62247467041016,69.5"/></g></g><g transform="matrix(5.275599956512451,0,0,5.275599956512451,583.4199829101562,190.02000427246094)" opacity="1" style="display: none;"><g opacity="1" transform="matrix(1,0,0,1,0,0)"><path stroke-linecap="round" stroke-linejoin="round" fill-opacity="0" class="primary" stroke="rgb(18,19,49)" stroke-opacity="1" stroke-width="2.5" d=" M-94.9863052368164,35.93757629394531 C-94.9863052368164,35.93757629394531 -93.34334564208984,35.8403434753418 -93.34334564208984,35.8403434753418 C-93.34334564208984,35.8403434753418 -93.34334564208984,-1.3687150478363037 -93.34334564208984,-1.3687150478363037"/></g></g><g transform="matrix(5.275599956512451,0,0,5.275599956512451,583.4199829101562,190.02000427246094)" opacity="1" style="display: none;"><g opacity="1" transform="matrix(1,0,0,1,0,0)"><path stroke-linecap="round" stroke-linejoin="round" fill-opacity="0" class="primary" stroke="rgb(18,19,49)" stroke-opacity="1" stroke-width="2.5" d=" M-78.85841369628906,-17.65336036682129 C-78.85841369628906,-17.65336036682129 -70.41342163085938,-25.240705490112305 -70.41342163085938,-25.240705490112305 M-101.09970092773438,3.231215238571167 C-101.09970092773438,3.231215238571167 -88.2070083618164,-8.92072868347168 -88.2070083618164,-8.92072868347168"/></g></g><g transform="matrix(5.275599956512451,0,0,5.275599956512451,325.0899963378906,190.02000427246094)" opacity="1" style="display: none;"><g opacity="0" transform="matrix(1,0,0,1,0,0)"><path stroke-linecap="round" stroke-linejoin="round" fill-opacity="0" class="secondary" stroke="rgb(8,168,138)" stroke-opacity="1" stroke-width="2.45" d=" M-27.183000564575195,-14.454999923706055 C-27.183000564575195,-14.454999923706055 -27.183000564575195,-18.768999099731445 -27.183000564575195,-18.768999099731445 C-27.183000564575195,-18.768999099731445 -27.25200080871582,-18.768999099731445 -27.25200080871582,-18.768999099731445 C-27.25200080871582,-18.768999099731445 -27.25200080871582,-8.24899959564209 -27.25200080871582,-8.24899959564209"/></g><g opacity="1" transform="matrix(1,0,0,1,0,0)"><path stroke-linecap="round" stroke-linejoin="round" fill-opacity="0" class="secondary" stroke="rgb(8,168,138)" stroke-opacity="1" stroke-width="2.45" d="M0 0"/></g><g opacity="0" transform="matrix(1,0,0,1,0,0)"><path stroke-linecap="round" stroke-linejoin="round" fill-opacity="0" class="secondary" stroke="rgb(8,168,138)" stroke-opacity="1" stroke-width="2.45" d=" M-38.78300094604492,-6.558000087738037 C-38.78300094604492,-6.558000087738037 -38.80500030517578,-20.690000534057617 -38.80500030517578,-20.690000534057617 C-38.80500030517578,-20.690000534057617 -38.68600082397461,-20.634000778198242 -38.68600082397461,-20.634000778198242 C-38.68600082397461,-20.634000778198242 -38.65599822998047,-6.461999893188477 -38.65599822998047,-6.461999893188477"/></g></g><g transform="matrix(5.275599956512451,0,0,5.275599956512451,583.4199829101562,190.02000427246094)" opacity="1" style="display: none;"><g opacity="1" transform="matrix(1,0,0,1,0,0)"><path stroke-linecap="round" stroke-linejoin="round" fill-opacity="0" class="primary" stroke="rgb(18,19,49)" stroke-opacity="1" stroke-width="2.5" d=" M-80.85099792480469,-13.649999618530273 C-89.28299713134766,-5.798999786376953 -98.8740005493164,3.13100004196167 -98.8740005493164,3.13100004196167 C-98.87380981445312,3.130568742752075 -100.77140808105469,3.1408162117004395 -100.77140808105469,3.1408162117004395 M-70.18000030517578,-25.357942581176758 C-70.18000030517578,-25.357942581176758 -68.33458709716797,-25.303373336791992 -68.33458709716797,-25.303373336791992 C-68.33499908447266,-25.30299949645996 -74.23600006103516,-19.80900001525879 -80.85099792480469,-13.649999618530273"/></g></g><g transform="matrix(5.275599956512451,0,0,5.275599956512451,325.0899963378906,190.02000427246094)" opacity="1" style="display: none;"><g opacity="1" transform="matrix(1,0,0,1,0,0)"><path stroke-linecap="round" stroke-linejoin="round" fill-opacity="0" class="secondary" stroke="rgb(8,168,138)" stroke-opacity="1" stroke-width="2.45" d=" M-26.38445472717285,-14.459488868713379 C-26.38445472717285,-14.459488868713379 -26.38445472717285,-18.882247924804688 -26.38445472717285,-18.882247924804688 C-26.38445472717285,-18.882247924804688 -25.946012496948242,-18.882247924804688 -25.946012496948242,-18.882247924804688 C-25.946012496948242,-18.882247924804688 -25.946012496948242,-8.240022659301758 -25.946012496948242,-8.240022659301758"/></g><g opacity="0" transform="matrix(1,0,0,1,0,0)"><path stroke-linecap="round" stroke-linejoin="round" fill-opacity="0" class="secondary" stroke="rgb(8,168,138)" stroke-opacity="1" stroke-width="2.45" d=" M-14.814000129699707,-14.5 C-14.814000129699707,-14.5 -14.814000129699707,-18.815000534057617 -14.814000129699707,-18.815000534057617 C-14.814000129699707,-18.815000534057617 -14.883000373840332,-18.815000534057617 -14.883000373840332,-18.815000534057617 C-14.883000373840332,-18.815000534057617 -14.883000373840332,-8.295000076293945 -14.883000373840332,-8.295000076293945"/></g><g opacity="1" transform="matrix(1,0,0,1,0,0)"><path stroke-linecap="round" stroke-linejoin="round" fill-opacity="0" class="secondary" stroke="rgb(8,168,138)" stroke-opacity="1" stroke-width="2.45" d=" M-26.048095703125,-8.232999801635742 C-26.048095703125,-8.232999801635742 -26.01386260986328,-18.882545471191406 -26.01386260986328,-18.882545471191406 C-26.01386260986328,-18.882545471191406 -13.828609466552734,-18.833913803100586 -13.828609466552734,-18.833913803100586 C-13.828609466552734,-18.833913803100586 -13.85084342956543,-8.145367622375488 -13.85084342956543,-8.145367622375488"/></g></g><g transform="matrix(5.275599956512451,0,0,5.275599956512451,325.0899963378906,190.02000427246094)" opacity="1" style="display: none;"><g opacity="1" transform="matrix(1,0,0,1,0,0)"><path stroke-linecap="round" stroke-linejoin="round" fill-opacity="0" class="secondary" stroke="rgb(8,168,138)" stroke-opacity="1" stroke-width="3.6750000000000003" d=" M-9.927000045776367,-16.43600082397461 C-9.927000045776367,-16.43600082397461 -9.927000045776367,-22.22800064086914 -9.927000045776367,-22.22800064086914 C-9.926799774169922,-22.228466033935547 -0.9917998909950256,-22.228466033935547 -0.9917998909950256,-22.228466033935547 C-0.9919999837875366,-22.22800064086914 -0.9919999837875366,-8.32699966430664 -0.9919999837875366,-8.107999801635742"/></g></g><g transform="matrix(5.275599956512451,0,0,5.275599956512451,325.0899963378906,190.02000427246094)" opacity="1" style="display: none;"><g opacity="1" transform="matrix(1,0,0,1,0,0)"><path stroke-linecap="round" stroke-linejoin="round" fill-opacity="0" class="secondary" stroke="rgb(8,168,138)" stroke-opacity="1" stroke-width="2.45" d=" M-50.047218322753906,35.6983642578125 C-50.047218322753906,35.6983642578125 -50.047218322753906,9.715999603271484 -50.047218322753906,9.715999603271484 C-50.047218322753906,9.715999603271484 -49.2570686340332,9.715999603271484 -49.2570686340332,9.715999603271484 C-49.2570686340332,9.715999603271484 -49.2570686340332,35.6983642578125 -49.2570686340332,35.6983642578125"/></g><g opacity="1" transform="matrix(1,0,0,1,0,0)"><path stroke-linecap="round" stroke-linejoin="round" fill-opacity="0" class="primary" stroke="rgb(18,19,49)" stroke-opacity="1" stroke-width="2.45" d=" M-56.362281799316406,3.257133960723877 C-56.362281799316406,3.257133960723877 -45.473087310791016,-25.54320526123047 -45.473087310791016,-25.54320526123047 C-45.473087310791016,-25.54320526123047 -53.26932907104492,3.257133960723877 -53.26932907104492,3.257133960723877"/></g><g opacity="1" transform="matrix(1,0,0,1,0,0)"><path stroke-linecap="round" stroke-linejoin="round" fill-opacity="0" class="primary" stroke="rgb(18,19,49)" stroke-opacity="1" stroke-width="2.45" d=" M-50.8863410949707,3.5399999618530273 C-50.8863410949707,3.5399999618530273 -50.8863410949707,3.634999990463257 -50.8863410949707,3.634999990463257 C-50.8863410949707,3.634999990463257 -50.91703796386719,35.69792556762695 -50.91703796386719,35.69792556762695 C-50.91703796386719,35.69792556762695 -48.40373229980469,35.69792556762695 -48.40373229980469,35.69792556762695 C-48.40373229980469,35.69792556762695 -48.41350555419922,3.6200754642486572 -48.41350555419922,3.6200754642486572"/></g></g><g transform="matrix(5.275599956512451,0,0,5.275599956512451,325.0899963378906,190.02000427246094)" opacity="1" style="display: none;"><g opacity="1" transform="matrix(1,0,0,1,0,0)"><path stroke-linecap="round" stroke-linejoin="round" fill-opacity="0" class="primary" stroke="rgb(18,19,49)" stroke-opacity="1" stroke-width="2.45" d=" M-50.57282638549805,3.5387814044952393 C-50.57282638549805,3.5387814044952393 -50.57282638549805,3.6337814331054688 -50.57282638549805,3.6337814331054688 C-50.57282638549805,3.6337814331054688 -50.57476043701172,35.680999755859375 -50.57476043701172,35.680999755859375"/></g></g><g transform="matrix(5.275599956512451,0,0,5.275599956512451,325.0899963378906,190.02000427246094)" opacity="1" style="display: none;"><g opacity="1" transform="matrix(1,0,0,1,0,0)"><path stroke-linecap="round" stroke-linejoin="round" fill-opacity="0" class="secondary" stroke="rgb(8,168,138)" stroke-opacity="1" stroke-width="3.6750000000000003" d=" M-28.23921012878418,35.9169807434082 C-28.23921012878418,35.9169807434082 -28.23921012878418,9.715980529785156 -28.23921012878418,9.715980529785156 C-28.23921012878418,9.715980529785156 -12.385869979858398,9.715980529785156 -12.385869979858398,9.715980529785156 C-12.385869979858398,9.715980529785156 -12.385869979858398,35.9169807434082 -12.385869979858398,35.9169807434082"/></g></g><g transform="matrix(1,0,0,1,215.5,273.5)" opacity="1" style="display: none;"><g opacity="1" transform="matrix(1,0,0,1,0,0)"><path stroke-linecap="round" stroke-linejoin="round" fill-opacity="0" class="secondary" stroke="rgb(8,168,138)" stroke-opacity="1" stroke-width="18" d=" M-167.43800354003906,69.5 C-167.43800354003906,69.5 -167.43800354003906,2.5 -167.43800354003906,2.5 M-167.43800354003906,69.5 C-167.43800354003906,69.5 -167.43800354003906,2.5 -167.43800354003906,2.5 M-167.43800354003906,69.5 C-167.43800354003906,69.5 -167.43800354003906,2.5 -167.43800354003906,2.5 M-167.43800354003906,69.5 C-167.43800354003906,69.5 -167.43800354003906,2.5 -167.43800354003906,2.5 M-167.43800354003906,69.5 C-167.43800354003906,69.5 -167.43800354003906,2.5 -167.43800354003906,2.5 M-167.43800354003906,69.5 C-167.43800354003906,69.5 -167.43800354003906,2.5 -167.43800354003906,2.5 M-167.6820068359375,69.5 C-167.6820068359375,69.5 -167.43800354003906,69.5 -167.43800354003906,69.5 M-167.68800354003906,2.5 C-167.68800354003906,2.5 -167.68800354003906,-62.75 -167.68800354003906,-62.75 C-167.68800354003906,-62.75 -167.68499755859375,-62.75 -167.68499755859375,-62.75 C-167.68499755859375,-62.75 -167.68499755859375,2.5 -167.68499755859375,2.5 M-167.6820068359375,69.5 C-167.6820068359375,69.5 -167.6820068359375,2.5 -167.6820068359375,2.5 C-167.6820068359375,2.5 -167.43800354003906,2.5 -167.43800354003906,2.5 C-167.43800354003906,2.5 -167.43800354003906,69.5 -167.43800354003906,69.5"/></g></g><g transform="matrix(1,0,0,1,294.5,272.5)" opacity="1" style="display: none;"><g opacity="1" transform="matrix(1,0,0,1,0,0)"><path stroke-linecap="round" stroke-linejoin="round" fill-opacity="0" class="secondary" stroke="rgb(8,168,138)" stroke-opacity="1" stroke-width="18" d=" M-210.487060546875,33.5 C-210.487060546875,33.5 -210.4917755126953,33.5 -210.4917755126953,33.5 M-210.487060546875,33.5 C-210.487060546875,33.5 -210.487060546875,0 -210.487060546875,0 C-210.487060546875,0 -210.487060546875,-33.5 -210.487060546875,-33.5 C-210.487060546875,-33.5 -210.4917755126953,-33.5 -210.4917755126953,-33.5 C-210.4917755126953,-33.5 -210.4917755126953,33.5 -210.4917755126953,33.5"/></g></g><g transform="matrix(1,0,0,1,137.5,272.5)" opacity="1" style="display: none;"><g opacity="1" transform="matrix(1,0,0,1,0,0)"><path stroke-linecap="round" stroke-linejoin="round" fill-opacity="0" class="secondary" stroke="rgb(8,168,138)" stroke-opacity="1" stroke-width="18" d=" M-54.49662399291992,33.5 C-54.49662399291992,33.5 -54.50133514404297,33.5 -54.50133514404297,33.5 M-54.49662399291992,33.5 C-54.49662399291992,33.5 -54.49662399291992,-33.5 -54.49662399291992,-33.5 C-54.49662399291992,-33.5 -54.50133514404297,-33.5 -54.50133514404297,-33.5 C-54.50133514404297,-33.5 -54.50133514404297,33.5 -54.50133514404297,33.5"/></g></g><g transform="matrix(5.275599956512451,0,0,5.275599956512451,583.4199829101562,190.02000427246094)" opacity="1" style="display: none;"><g opacity="1" transform="matrix(1,0,0,1,0,0)"><path stroke-linecap="round" stroke-linejoin="round" fill-opacity="0" class="primary" stroke="rgb(18,19,49)" stroke-opacity="1" stroke-width="3.75" d=" M-94.60896301269531,35.91999435424805 C-94.60896301269531,35.91999435424805 -94.60896301269531,-1.8274071216583252 -94.60896301269531,-1.8274071216583252"/></g></g><g transform="matrix(5.275599956512451,0,0,5.275599956512451,325.0899963378906,190.02000427246094)" opacity="1" style="display: none;"><g opacity="1" transform="matrix(1,0,0,1,0,0)"><path stroke-linecap="round" stroke-linejoin="round" fill-opacity="0" class="primary" stroke="rgb(18,19,49)" stroke-opacity="1" stroke-width="3.6750000000000003" d=" M-20.312705993652344,-25.294010162353516 C-20.312705993652344,-25.294010162353516 10.512093544006348,3.283982992172241 10.512093544006348,3.283982992172241"/></g><g opacity="1" transform="matrix(1,0,0,1,0,0)"><path stroke-linecap="round" stroke-linejoin="round" fill-opacity="0" class="primary" stroke="rgb(18,19,49)" stroke-opacity="1" stroke-width="3.6750000000000003" d=" M-45.708534240722656,35.916988372802734 C-45.708534240722656,35.916988372802734 4.760360240936279,35.916988372802734 4.760360240936279,35.916988372802734 C4.760360240936279,35.916988372802734 4.751363754272461,-1.8678004741668701 4.751363754272461,-1.8678004741668701 C4.751363754272461,-1.8678004741668701 4.751363754272461,-1.992799997329712 4.751363754272461,-1.992799997329712"/></g></g><g transform="matrix(5.275599956512451,0,0,5.275599956512451,583.4199829101562,190.02000427246094)" opacity="1" style="display: none;"><g opacity="1" transform="matrix(1,0,0,1,0,0)"><path stroke-linecap="round" stroke-linejoin="round" fill-opacity="0" class="primary" stroke="rgb(18,19,49)" stroke-opacity="1" stroke-width="3.75" d=" M-94.70569610595703,35.94099044799805 C-94.70569610595703,35.94099044799805 -94.74653625488281,35.84000015258789 -94.74653625488281,35.84000015258789 C-94.74653625488281,35.84000015258789 -94.74653625488281,-1.3420658111572266 -94.74653625488281,-1.3420658111572266"/></g></g><g transform="matrix(5.275599956512451,0,0,5.275599956512451,583.4199829101562,190.02000427246094)" opacity="1" style="display: none;"><g opacity="1" transform="matrix(1,0,0,1,0,0)"><path stroke-linecap="round" stroke-linejoin="round" fill-opacity="0" class="primary" stroke="rgb(18,19,49)" stroke-opacity="1" stroke-width="3.75" d=" M-69.21937561035156,-25.357999801635742 C-69.21937561035156,-25.357999801635742 -69.25473022460938,-25.305994033813477 -69.25473022460938,-25.305994033813477 C-69.25473022460938,-25.305994033813477 -100.36331939697266,3.1280062198638916 -100.36331939697266,3.1280062198638916 C-100.36331939697266,3.1280062198638916 -100.3689956665039,3.1290290355682373 -100.3689956665039,3.1290290355682373"/></g></g><g transform="matrix(5.275599956512451,0,0,5.275599956512451,583.4199829101562,190.02000427246094)" opacity="1" style="display: none;"><g opacity="1" transform="matrix(1,0,0,1,0,0)"><path stroke-linecap="round" stroke-linejoin="round" fill-opacity="0" class="primary" stroke="rgb(18,19,49)" stroke-opacity="1" stroke-width="3.75" d=" M-100.72193145751953,3.226012706756592 C-100.72193145751953,3.226012706756592 -69.35240173339844,-25.328004837036133 -69.35240173339844,-25.328004837036133"/></g></g><g transform="matrix(5.275599956512451,0,0,5.275599956512451,325.0899963378906,190.02000427246094)" opacity="1" style="display: none;"><g opacity="1" transform="matrix(1,0,0,1,0,0)"><path stroke-linecap="round" stroke-linejoin="round" fill-opacity="0" class="primary" stroke="rgb(18,19,49)" stroke-opacity="1" stroke-width="2.45" d=" M-50.57476043701172,35.680999755859375 C-50.57476043701172,35.680999755859375 -50.68423080444336,35.680999755859375 -50.68423080444336,35.680999755859375 C-50.68423080444336,35.680999755859375 -50.68229675292969,3.59651780128479 -50.68229675292969,3.59651780128479"/></g></g><g transform="matrix(5.275599956512451,0,0,5.275599956512451,325.0899963378906,190.02000427246094)" opacity="1" style="display: none;"><g opacity="1" transform="matrix(1,0,0,1,0,0)"><path stroke-linecap="round" stroke-linejoin="round" fill-opacity="0" class="primary" stroke="rgb(18,19,49)" stroke-opacity="1" stroke-width="2.45" d=" M-56.146156311035156,3.256218671798706 C-56.146156311035156,3.256218671798706 -45.77595520019531,-25.55417251586914 -45.77595520019531,-25.55417251586914 C-45.77595520019531,-25.55417251586914 -56.28118896484375,3.256218671798706 -56.28118896484375,3.256218671798706"/></g></g><g transform="matrix(5.275599956512451,0,0,5.275599956512451,325.0899963378906,190.02000427246094)" opacity="1" style="display: block;"><g opacity="1" transform="matrix(1,0,0,1,0,0)"><path stroke-linecap="round" stroke-linejoin="round" fill-opacity="0" class="secondary" stroke="rgb(8,168,138)" stroke-opacity="1" stroke-width="3.6750000000000003" d=" M-9.925999641418457,-16.437000274658203 C-9.925999641418457,-16.437000274658203 -9.925999641418457,-22.229000091552734 -9.925999641418457,-22.229000091552734 C-9.925999641418457,-22.229000091552734 -0.9909999966621399,-22.229000091552734 -0.9909999966621399,-22.229000091552734 C-0.9909999966621399,-22.229000091552734 -0.9909999966621399,-8.105999946594238 -0.9909999966621399,-8.105999946594238 C-0.9909999966621399,-8.105999946594238 -1.055999994277954,-8.166999816894531 -1.055999994277954,-8.166999816894531"/></g><g opacity="1" transform="matrix(1,0,0,1,0,0)"><path stroke-linecap="round" stroke-linejoin="round" fill-opacity="0" class="secondary" stroke="rgb(8,168,138)" stroke-opacity="1" stroke-width="3.6750000000000003" d=" M-28.242000579833984,35.91699981689453 C-28.242000579833984,35.91699981689453 -28.242000579833984,9.715999603271484 -28.242000579833984,9.715999603271484 C-28.242000579833984,9.715999603271484 -12.387999534606934,9.715999603271484 -12.387999534606934,9.715999603271484 C-12.387999534606934,9.715999603271484 -12.387999534606934,35.91699981689453 -12.387999534606934,35.91699981689453"/></g><g opacity="1" transform="matrix(1,0,0,1,0,0)"><path stroke-linecap="round" stroke-linejoin="round" fill-opacity="0" class="secondary" stroke="rgb(8,168,138)" stroke-opacity="0" stroke-width="3.6750000000000003" d=" M-51.58100128173828,3.2839999198913574 C-51.58100128173828,3.2839999198913574 -20.315000534057617,-25.29400062561035 -20.315000534057617,-25.29400062561035 M-20.315000534057617,-25.29400062561035 C-20.315000534057617,-25.29400062561035 10.51099967956543,3.2839999198913574 10.51099967956543,3.2839999198913574 M-45.71200180053711,-1.2940000295639038 C-45.71200180053711,-1.2940000295639038 -45.71200180053711,-1.184000015258789 -45.71200180053711,-1.184000015258789 C-45.71200180053711,-1.184000015258789 -45.71200180053711,35.91699981689453 -45.71200180053711,35.91699981689453 C-45.71200180053711,35.91699981689453 4.758999824523926,35.91699981689453 4.758999824523926,35.91699981689453 C4.758999824523926,35.91699981689453 4.75,-1.9930000305175781 4.75,-1.9930000305175781"/><path stroke-linecap="round" stroke-linejoin="round" fill-opacity="0" class="primary" stroke="rgb(18,19,49)" stroke-opacity="1" stroke-width="3.6750000000000003" d=" M-51.58100128173828,3.2839999198913574 C-51.58100128173828,3.2839999198913574 -20.315000534057617,-25.29400062561035 -20.315000534057617,-25.29400062561035 M-20.315000534057617,-25.29400062561035 C-20.315000534057617,-25.29400062561035 10.51099967956543,3.2839999198913574 10.51099967956543,3.2839999198913574 M-45.71200180053711,-1.2940000295639038 C-45.71200180053711,-1.2940000295639038 -45.71200180053711,-1.184000015258789 -45.71200180053711,-1.184000015258789 C-45.71200180053711,-1.184000015258789 -45.71200180053711,35.91699981689453 -45.71200180053711,35.91699981689453 C-45.71200180053711,35.91699981689453 4.758999824523926,35.91699981689453 4.758999824523926,35.91699981689453 C4.758999824523926,35.91699981689453 4.75,-1.9930000305175781 4.75,-1.9930000305175781"/></g></g><g transform="matrix(5.275599956512451,0,0,5.275599956512451,325.0899963378906,190.02000427246094)" opacity="1" style="display: none;"><g opacity="1" transform="matrix(1,0,0,1,0,0)"><path stroke-linecap="round" stroke-linejoin="round" fill-opacity="0" class="primary" stroke="rgb(18,19,49)" stroke-opacity="1" stroke-width="2.45" d=" M-51.58100128173828,3.2839999198913574 C-51.58100128173828,3.2839999198913574 -20.315000534057617,-25.29400062561035 -20.315000534057617,-25.29400062561035 M-20.315000534057617,-25.29400062561035 C-20.315000534057617,-25.29400062561035 10.51099967956543,3.2839999198913574 10.51099967956543,3.2839999198913574 M-45.71200180053711,-1.2940000295639038 C-45.71200180053711,-1.2940000295639038 -45.71200180053711,-1.184000015258789 -45.71200180053711,-1.184000015258789 C-45.71200180053711,-1.184000015258789 -45.71200180053711,35.91699981689453 -45.71200180053711,35.91699981689453 C-45.71200180053711,35.91699981689453 4.758999824523926,35.91699981689453 4.758999824523926,35.91699981689453 C4.758999824523926,35.91699981689453 4.75,-1.9930000305175781 4.75,-1.9930000305175781"/></g></g></g></g><clipPath id="__lottie_element_12"><path d="M0,0 L430,0 L430,430 L0,430z"/></clipPath><mask id="__lottie_element_11_1" mask-type="alpha"><use xmlns:ns1="http://www.w3.org/1999/xlink" ns1:href="#__lottie_element_11"/></mask></defs><g clip-path="url(#__lottie_element_2)"><g clip-path="url(#__lottie_element_4)" transform="matrix(1,0,0,1,0,0)" opacity="1" style="display: block;"><g mask="url(#__lottie_element_11_1)" style="display: block;"><g filter="url(#__lottie_element_10)" transform="matrix(-0.1674155443906784,-2.3941538333892822,2.3941538333892822,-0.1674155443906784,271.9410095214844,220.4600067138672)" opacity="1"><g class="design" opacity="1" transform="matrix(1,0,0,1,0,0)"><path class="primary" fill="rgb(79,16,145)" fill-opacity="1" d=" M0,-250 C137.97500610351562,-250 250,-137.97500610351562 250,0 C250,137.97500610351562 137.97500610351562,250 0,250 C-137.97500610351562,250 -250,137.97500610351562 -250,0 C-250,-137.97500610351562 -137.97500610351562,-250 0,-250z"/></g><g class="design" opacity="1" transform="matrix(1,0,0,1,113.24199676513672,-118.88400268554688)"><path class="secondary" fill="rgb(9,92,20)" fill-opacity="1" d=" M0,-176.5 C97.47799682617188,-176.5 176.5,-97.47799682617188 176.5,0 C176.5,97.47799682617188 97.47799682617188,176.5 0,176.5 C-43.948001861572266,176.5 -74.39600372314453,142.4429931640625 -105.29000091552734,115.86900329589844 C-142.92100524902344,83.5 -176.5,53.53099822998047 -176.5,0 C-176.5,-97.47799682617188 -97.47799682617188,-176.5 0,-176.5z"/></g></g></g></g></g></svg>