<svg xmlns="http://www.w3.org/2000/svg" xmlns:xlink="http://www.w3.org/1999/xlink" viewBox="0 0 430 430" width="430" height="430" preserveAspectRatio="xMidYMid meet" style="width: 100%; height: 100%; transform: translate3d(0px, 0px, 0px); content-visibility: visible;"><defs><clipPath id="__lottie_element_16"><rect width="430" height="430" x="0" y="0"/></clipPath><clipPath id="__lottie_element_18"><path d="M0,0 L430,0 L430,430 L0,430z"/></clipPath><filter id="__lottie_element_24" x="-100%" y="-100%" width="300%" height="300%"><feGaussianBlur result="filter_result_0" stdDeviation="52.5 52.5" edgeMode="wrap"/></filter><g id="__lottie_element_25"><g clip-path="url(#__lottie_element_26)" transform="matrix(1,0,0,1,0,0)" opacity="1" style="display: block;"><g mask="url(#__lottie_element_32_2)" style="display: block;"><g transform="matrix(1,0,0,1,181.1999969482422,215)" opacity="1"><g opacity="1" transform="matrix(1,0,0,1,0,0)"><path stroke-linecap="round" stroke-linejoin="round" fill-opacity="0" class="secondary" stroke="rgb(8,168,138)" stroke-opacity="1" stroke-width="18" d=" M33.69599914550781,65 C33.69599914550781,65 -31.200000762939453,0.052000001072883606 -31.200000762939453,0.052000001072883606 C-31.200000762939453,0.052000001072883606 33.79999923706055,-65 33.79999923706055,-65 M-31.25,0 C-31.25,0 218.75,0 218.75,0"/></g></g></g><g transform="matrix(1,0,0,1,181.1999969482422,215)" opacity="1" style="display: none;"><g opacity="1" transform="matrix(1,0,0,1,0,0)"><path stroke-linecap="round" stroke-linejoin="round" fill-opacity="0" class="secondary" stroke="rgb(8,168,138)" stroke-opacity="1" stroke-width="18" d=" M33.69599914550781,65 C33.69599914550781,65 -31.200000762939453,0.052000001072883606 -31.200000762939453,0.052000001072883606 C-31.200000762939453,0.052000001072883606 33.79999923706055,-65 33.79999923706055,-65 M-31.25,0 C-31.25,0 218.75,0 218.75,0"/></g></g><g transform="matrix(1,0,0,1,175,215)" opacity="1" style="display: block;"><g opacity="1" transform="matrix(1,0,0,1,0,0)"><path stroke-linecap="round" stroke-linejoin="round" fill-opacity="0" class="primary" stroke="rgb(18,19,49)" stroke-opacity="1" stroke-width="18" d=" M115,80 C115,80 115,90 115,90 C115,95.51899719238281 115,108.96199798583984 115,120 C115,120 115,140 115,140 C115,151.03799438476562 106.03800201416016,160 95,160 C95,160 -95,160 -95,160 C-106.03800201416016,160 -115,151.03799438476562 -115,140 C-115,140 -115,-140 -115,-140 C-115,-151.03799438476562 -106.03800201416016,-160 -95,-160 C-95,-160 95,-160 95,-160 C106.03800201416016,-160 115,-151.03799438476562 115,-140 C115,-140 115,-121 115,-121 C115,-109.96199798583984 115,-96.29495239257812 115,-90.5 C115,-90.5 115,-80 115,-80"/></g></g></g></g><clipPath id="__lottie_element_26"><path d="M0,0 L430,0 L430,430 L0,430z"/></clipPath><mask id="__lottie_element_25_1" mask-type="alpha"><use xmlns:ns1="http://www.w3.org/1999/xlink" ns1:href="#__lottie_element_25"/></mask><g id="__lottie_element_32"><g transform="matrix(1,0,0,1,227.5,215)" opacity="1" style="display: block;"><g opacity="1" transform="matrix(1,0,0,1,-346.5,0.5)"><path stroke-linecap="butt" stroke-linejoin="miter" fill-opacity="0" stroke-miterlimit="4" class="primary" stroke="rgb(18,19,49)" stroke-opacity="1" stroke-width="0" d=" M178.5,-204.5 C178.5,-204.5 178.5,204.5 178.5,204.5 C178.5,204.5 -178.5,204.5 -178.5,204.5 C-178.5,204.5 -178.5,-204.5 -178.5,-204.5 C-178.5,-204.5 178.5,-204.5 178.5,-204.5z"/><path fill="rgb(255,0,0)" fill-opacity="1" d=" M178.5,-204.5 C178.5,-204.5 178.5,204.5 178.5,204.5 C178.5,204.5 -178.5,204.5 -178.5,204.5 C-178.5,204.5 -178.5,-204.5 -178.5,-204.5 C-178.5,-204.5 178.5,-204.5 178.5,-204.5z"/></g></g></g><filter id="__lottie_element_38" filterUnits="objectBoundingBox" x="0%" y="0%" width="100%" height="100%"><feComponentTransfer in="SourceGraphic"><feFuncA type="table" tableValues="1.0 0.0"/></feComponentTransfer></filter><mask id="__lottie_element_32_2" mask-type="alpha" maskUnits="userSpaceOnUse"><g filter="url(#__lottie_element_38)"><rect width="430" height="430" x="0" y="0" fill="#ffffff" opacity="0"/><use xmlns:ns2="http://www.w3.org/1999/xlink" ns2:href="#__lottie_element_32"/></g></mask></defs><g clip-path="url(#__lottie_element_16)"><g clip-path="url(#__lottie_element_18)" transform="matrix(1,0,0,1,0,0)" opacity="1" style="display: block;"><g mask="url(#__lottie_element_25_1)" style="display: block;"><g filter="url(#__lottie_element_24)" transform="matrix(-0.1674155443906784,-2.3941538333892822,2.3941538333892822,-0.1674155443906784,271.9410095214844,220.4600067138672)" opacity="1"><g class="design" opacity="1" transform="matrix(1,0,0,1,0,0)"><path class="primary" fill="rgb(16,145,32)" fill-opacity="1" d=" M0,-250 C137.97500610351562,-250 250,-137.97500610351562 250,0 C250,137.97500610351562 137.97500610351562,250 0,250 C-137.97500610351562,250 -250,137.97500610351562 -250,0 C-250,-137.97500610351562 -137.97500610351562,-250 0,-250z"/></g><g class="design" opacity="1" transform="matrix(1,0,0,1,113.24199676513672,-118.88400268554688)"><path class="secondary" fill="rgb(79,16,145)" fill-opacity="1" d=" M0,-176.5 C97.47799682617188,-176.5 176.5,-97.47799682617188 176.5,0 C176.5,97.47799682617188 97.47799682617188,176.5 0,176.5 C-43.948001861572266,176.5 -74.39600372314453,142.4429931640625 -105.29000091552734,115.86900329589844 C-142.92100524902344,83.5 -176.5,53.53099822998047 -176.5,0 C-176.5,-97.47799682617188 -97.47799682617188,-176.5 0,-176.5z"/></g></g></g></g></g></svg>