<svg xmlns="http://www.w3.org/2000/svg" xmlns:xlink="http://www.w3.org/1999/xlink" viewBox="0 0 430 430" width="430" height="430" preserveAspectRatio="xMidYMid meet" style="width: 100%; height: 100%; transform: translate3d(0px, 0px, 0px); content-visibility: visible;"><defs><clipPath id="__lottie_element_16"><rect width="430" height="430" x="0" y="0"/></clipPath><clipPath id="__lottie_element_18"><path d="M0,0 L430,0 L430,430 L0,430z"/></clipPath><filter id="__lottie_element_24" x="-100%" y="-100%" width="300%" height="300%"><feGaussianBlur result="filter_result_0" stdDeviation="52.5 52.5" edgeMode="wrap"/></filter><g id="__lottie_element_25"><g clip-path="url(#__lottie_element_26)" transform="matrix(1,0,0,1,0,0)" opacity="1" style="display: block;"><g transform="matrix(1,0,0,1,215,246.25)" opacity="1" style="display: block;"><g opacity="1" transform="matrix(1,0,0,1,0,0)"><path stroke-linecap="round" stroke-linejoin="round" fill-opacity="0" class="quaternary" stroke="rgb(18,19,49)" stroke-opacity="1" stroke-width="18" d=" M38.67900085449219,-53.41400146484375 C-41.12099838256836,-53.3849983215332 -139,-53.349998474121094 -139,-53.349998474121094 C-150.60000610351562,-53.349998474121094 -160,-43.95000076293945 -160,-32.349998474121094 C-160,-32.349998474121094 -160,32.349998474121094 -160,32.349998474121094 C-160,43.95000076293945 -150.60000610351562,53.349998474121094 -139,53.349998474121094 C-139,53.349998474121094 139,53.349998474121094 139,53.349998474121094 C150.5,53.349998474121094 160,43.95000076293945 160,32.349998474121094 C160,32.349998474121094 160,-32.349998474121094 160,-32.349998474121094 C160,-41.92100143432617 153.57400512695312,-50.03200149536133 144.85299682617188,-52.551998138427734"/></g></g><g transform="matrix(1,0,0,1,215.14999389648438,246.1999969482422)" opacity="1" style="display: block;"><g opacity="1" transform="matrix(1,0,0,1,0,0)"><path stroke-linecap="round" stroke-linejoin="round" fill-opacity="0" class="primary" stroke="rgb(8,168,138)" stroke-opacity="1" stroke-width="22.5" d=" M106.75,0 C106.75,0 106.55000305175781,0 106.55000305175781,0"/></g></g><g transform="matrix(1,0,0,1,184.72201538085938,246.1999969482422)" opacity="1" style="display: block;"><g opacity="1" transform="matrix(1,0,0,1,0,0)"><path stroke-linecap="round" stroke-linejoin="round" fill-opacity="0" class="primary" stroke="rgb(8,168,138)" stroke-opacity="1" stroke-width="22.5" d=" M106.75,0 C106.75,0 106.55000305175781,0 106.55000305175781,0"/></g></g><g transform="matrix(1,0,0,1,154.29299926757812,246.1999969482422)" opacity="1" style="display: block;"><g opacity="1" transform="matrix(1,0,0,1,0,0)"><path stroke-linecap="round" stroke-linejoin="round" fill-opacity="0" class="primary" stroke="rgb(8,168,138)" stroke-opacity="1" stroke-width="22.5" d=" M106.75,0 C106.75,0 106.55000305175781,0 106.55000305175781,0"/></g></g><g transform="matrix(1,0,0,1,123.86400604248047,246.1999969482422)" opacity="1" style="display: block;"><g opacity="1" transform="matrix(1,0,0,1,0,0)"><path stroke-linecap="round" stroke-linejoin="round" fill-opacity="0" class="primary" stroke="rgb(8,168,138)" stroke-opacity="1" stroke-width="22.5" d=" M106.75,0 C106.75,0 106.55000305175781,0 106.55000305175781,0"/></g></g><g transform="matrix(1,0,0,1,93.43599700927734,246.1999969482422)" opacity="1" style="display: block;"><g opacity="1" transform="matrix(1,0,0,1,0,0)"><path stroke-linecap="round" stroke-linejoin="round" fill-opacity="0" class="primary" stroke="rgb(8,168,138)" stroke-opacity="1" stroke-width="22.5" d=" M106.75,0 C106.75,0 106.55000305175781,0 106.55000305175781,0"/></g></g><g transform="matrix(1,0,0,1,63.006996154785156,246.1999969482422)" opacity="1" style="display: block;"><g opacity="1" transform="matrix(1,0,0,1,0,0)"><path stroke-linecap="round" stroke-linejoin="round" fill-opacity="0" class="primary" stroke="rgb(8,168,138)" stroke-opacity="1" stroke-width="22.5" d=" M106.75,0 C106.75,0 106.55000305175781,0 106.55000305175781,0"/></g></g><g transform="matrix(1,0,0,1,32.579002380371094,246.1999969482422)" opacity="1" style="display: block;"><g opacity="1" transform="matrix(1,0,0,1,0,0)"><path stroke-linecap="round" stroke-linejoin="round" fill-opacity="0" class="primary" stroke="rgb(8,168,138)" stroke-opacity="1" stroke-width="22.5" d=" M106.75,0 C106.75,0 106.55000305175781,0 106.55000305175781,0"/></g></g><g transform="matrix(1,0,0,1,2.1500015258789062,246.1999969482422)" opacity="1" style="display: block;"><g opacity="1" transform="matrix(1,0,0,1,0,0)"><path stroke-linecap="round" stroke-linejoin="round" fill-opacity="0" class="primary" stroke="rgb(8,168,138)" stroke-opacity="1" stroke-width="22.5" d=" M106.75,0 C106.75,0 106.55000305175781,0 106.55000305175781,0"/></g></g><g transform="matrix(1,0,0,1,305.5,166)" opacity="1" style="display: block;"><g opacity="1" transform="matrix(1,0,0,1,0,0)"><path stroke-linecap="round" stroke-linejoin="round" fill-opacity="0" class="primary" stroke="rgb(8,168,138)" stroke-opacity="1" stroke-width="18" d=" M58.5,-48.42399978637695 C58.5,-48.42399978637695 25.655000686645508,-48.93299865722656 25.655000686645508,-48.93299865722656 C25.655000686645508,-48.93299865722656 25.05900001525879,-16.141000747680664 25.05900001525879,-16.141000747680664 M7.190000057220459,53 C18.506999969482422,51.560001373291016 29.39900016784668,46.47600173950195 38.077999114990234,37.83300018310547 C59.095001220703125,16.90399932861328 59.095001220703125,-16.90399932861328 38.077999114990234,-37.83300018310547 C35.099998474121094,-40.7140007019043 31.95199966430664,-43.25600051879883 28.54800033569336,-45.374000549316406"/></g><g opacity="1" transform="matrix(1,0,0,1,0,0)"><path stroke-linecap="round" stroke-linejoin="round" fill-opacity="0" class="primary" stroke="rgb(8,168,138)" stroke-opacity="1" stroke-width="18" d=" M-58.5,48.34000015258789 C-58.5,48.34000015258789 -25.655000686645508,48.847999572753906 -25.655000686645508,48.847999572753906 C-25.655000686645508,48.847999572753906 -25.05900001525879,16.05699920654297 -25.05900001525879,16.05699920654297 M-7.105000019073486,-53 C-18.422000885009766,-51.560001373291016 -29.31399917602539,-46.47600173950195 -37.99300003051758,-37.83300018310547 C-59.0099983215332,-16.90399932861328 -59.0099983215332,16.90399932861328 -37.99300003051758,37.83300018310547 C-35.01499938964844,40.7140007019043 -31.867000579833984,43.25600051879883 -28.46299934387207,45.374000549316406"/></g></g></g></g><clipPath id="__lottie_element_26"><path d="M0,0 L430,0 L430,430 L0,430z"/></clipPath><mask id="__lottie_element_25_1" mask-type="alpha"><use xmlns:ns1="http://www.w3.org/1999/xlink" ns1:href="#__lottie_element_25"/></mask></defs><g clip-path="url(#__lottie_element_16)"><g clip-path="url(#__lottie_element_18)" transform="matrix(1,0,0,1,0,0)" opacity="1" style="display: block;"><g mask="url(#__lottie_element_25_1)" style="display: block;"><g filter="url(#__lottie_element_24)" transform="matrix(-0.1674155443906784,-2.3941538333892822,2.3941538333892822,-0.1674155443906784,271.9410095214844,220.4600067138672)" opacity="1"><g class="design" opacity="1" transform="matrix(1,0,0,1,0,0)"><path class="primary" fill="rgb(79,16,145)" fill-opacity="1" d=" M0,-250 C137.97500610351562,-250 250,-137.97500610351562 250,0 C250,137.97500610351562 137.97500610351562,250 0,250 C-137.97500610351562,250 -250,137.97500610351562 -250,0 C-250,-137.97500610351562 -137.97500610351562,-250 0,-250z"/></g><g class="design" opacity="1" transform="matrix(1,0,0,1,113.24199676513672,-118.88400268554688)"><path class="secondary" fill="rgb(16,145,32)" fill-opacity="1" d=" M0,-176.5 C97.47799682617188,-176.5 176.5,-97.47799682617188 176.5,0 C176.5,97.47799682617188 97.47799682617188,176.5 0,176.5 C-43.948001861572266,176.5 -74.39600372314453,142.4429931640625 -105.29000091552734,115.86900329589844 C-142.92100524902344,83.5 -176.5,53.53099822998047 -176.5,0 C-176.5,-97.47799682617188 -97.47799682617188,-176.5 0,-176.5z"/></g></g></g></g></g></svg>