<svg xmlns="http://www.w3.org/2000/svg" xmlns:xlink="http://www.w3.org/1999/xlink" viewBox="0 0 430 430" width="430" height="430" preserveAspectRatio="xMidYMid meet" style="width: 100%; height: 100%; transform: translate3d(0px, 0px, 0px); content-visibility: visible;"><defs><clipPath id="__lottie_element_16"><rect width="430" height="430" x="0" y="0"/></clipPath><clipPath id="__lottie_element_18"><path d="M0,0 L430,0 L430,430 L0,430z"/></clipPath><filter id="__lottie_element_24" x="-100%" y="-100%" width="300%" height="300%"><feGaussianBlur result="filter_result_0" stdDeviation="52.5 52.5" edgeMode="wrap"/></filter><g id="__lottie_element_25"><g clip-path="url(#__lottie_element_26)" transform="matrix(1,0,0,1,0,0)" opacity="1" style="display: block;"><g mask="url(#__lottie_element_33_2)" style="display: block;"><g clip-path="url(#__lottie_element_30)" transform="matrix(1,0,0,1,0,0)" opacity="1"><g transform="matrix(1,0,0,1,201.65699768066406,194.98500061035156)" opacity="1" style="display: block;"><g opacity="1" transform="matrix(1,0,0,1,0,0)"><path stroke-linecap="round" stroke-linejoin="round" fill-opacity="0" class="primary" stroke="rgb(18,19,49)" stroke-opacity="1" stroke-width="18" d=" M120.08899688720703,-166.79100036621094 C120.08899688720703,-166.79100036621094 120.08899688720703,166.79100036621094 120.08899688720703,166.79100036621094 C120.08899688720703,166.79100036621094 -120.08899688720703,166.79100036621094 -120.08899688720703,166.79100036621094 C-120.08899688720703,166.79100036621094 -120.08899688720703,-166.79100036621094 -120.08899688720703,-166.79100036621094 C-120.08899688720703,-166.79100036621094 120.08899688720703,-166.79100036621094 120.08899688720703,-166.79100036621094z"/></g></g></g></g><g transform="matrix(1,0,0,1,-35.001007080078125,-35)" opacity="1" style="display: none;"><g opacity="1" transform="matrix(1,0,0,1,270.0150146484375,303.37298583984375)"><path class="primary" fill="rgb(18,19,49)" fill-opacity="1" d=" M-73.38800048828125,0 C-73.38800048828125,0 73.38800048828125,0 73.38800048828125,0"/><path stroke-linecap="round" stroke-linejoin="round" fill-opacity="0" class="secondary" stroke="rgb(8,168,138)" stroke-opacity="1" stroke-width="18" d=" M-73.38800048828125,0 C-73.38800048828125,0 73.38800048828125,0 73.38800048828125,0"/></g><g opacity="1" transform="matrix(1,0,0,1,270.0150146484375,343.40301513671875)"><path class="primary" fill="rgb(18,19,49)" fill-opacity="1" d=" M-73.38800048828125,0 C-73.38800048828125,0 73.38800048828125,0 73.38800048828125,0"/><path stroke-linecap="round" stroke-linejoin="round" fill-opacity="0" class="secondary" stroke="rgb(8,168,138)" stroke-opacity="1" stroke-width="18" d=" M-73.38800048828125,0 C-73.38800048828125,0 73.38800048828125,0 73.38800048828125,0"/></g><g opacity="1" transform="matrix(1,0,0,1,270.0150146484375,383.4330139160156)"><path class="primary" fill="rgb(18,19,49)" fill-opacity="1" d=" M-73.38800048828125,0 C-73.38800048828125,0 73.38800048828125,0 73.38800048828125,0"/><path stroke-linecap="round" stroke-linejoin="round" fill-opacity="0" class="secondary" stroke="rgb(8,168,138)" stroke-opacity="1" stroke-width="18" d=" M-73.38800048828125,0 C-73.38800048828125,0 73.38800048828125,0 73.38800048828125,0"/></g></g><g mask="url(#__lottie_element_40_2)" style="display: block;"><g transform="matrix(1,0,0,1,-35.001007080078125,-35)" opacity="1"><g opacity="1" transform="matrix(1,0,0,1,270.0150146484375,303.37298583984375)"><path class="primary" fill="rgb(18,19,49)" fill-opacity="1" d=" M-73.38800048828125,0 C-73.38800048828125,0 73.38800048828125,0 73.38800048828125,0"/><path stroke-linecap="round" stroke-linejoin="round" fill-opacity="0" class="secondary" stroke="rgb(8,168,138)" stroke-opacity="1" stroke-width="18" d=" M-73.38800048828125,0 C-73.38800048828125,0 73.38800048828125,0 73.38800048828125,0"/></g><g opacity="1" transform="matrix(1,0,0,1,270.0150146484375,343.40301513671875)"><path class="primary" fill="rgb(18,19,49)" fill-opacity="1" d=" M-73.38800048828125,0 C-73.38800048828125,0 73.38800048828125,0 73.38800048828125,0"/><path stroke-linecap="round" stroke-linejoin="round" fill-opacity="0" class="secondary" stroke="rgb(8,168,138)" stroke-opacity="1" stroke-width="18" d=" M-73.38800048828125,0 C-73.38800048828125,0 73.38800048828125,0 73.38800048828125,0"/></g><g opacity="1" transform="matrix(1,0,0,1,270.0150146484375,383.4330139160156)"><path class="primary" fill="rgb(18,19,49)" fill-opacity="1" d=" M-73.38800048828125,0 C-73.38800048828125,0 73.38800048828125,0 73.38800048828125,0"/><path stroke-linecap="round" stroke-linejoin="round" fill-opacity="0" class="secondary" stroke="rgb(8,168,138)" stroke-opacity="1" stroke-width="18" d=" M-73.38800048828125,0 C-73.38800048828125,0 73.38800048828125,0 73.38800048828125,0"/></g></g></g><g transform="matrix(1,0,0,1,-35.001007080078125,-35)" opacity="1" style="display: block;"><g opacity="1" transform="matrix(1,0,0,1,270.0140075683594,270.0150146484375)"><path stroke-linecap="round" stroke-linejoin="round" fill-opacity="0" class="primary" stroke="rgb(18,19,49)" stroke-opacity="1" stroke-width="18" d=" M-113.41699981689453,-166.79100036621094 C-113.41699981689453,-166.79100036621094 -113.41699981689453,166.79100036621094 -113.41699981689453,166.79100036621094 C-113.41699981689453,166.79100036621094 113.41699981689453,166.79100036621094 113.41699981689453,166.79100036621094 C113.41699981689453,166.79100036621094 113.41500091552734,-73.38800048828125 113.41500091552734,-73.38800048828125 C113.41500091552734,-73.38800048828125 20.01799964904785,-166.78900146484375 20.01799964904785,-166.78900146484375 C20.01799964904785,-166.78900146484375 -113.41699981689453,-166.79100036621094 -113.41699981689453,-166.79100036621094z"/></g><g opacity="1" transform="matrix(1,0,0,1,336.7300109863281,149.92799377441406)"><path stroke-linecap="round" stroke-linejoin="round" fill-opacity="0" class="primary" stroke="rgb(18,19,49)" stroke-opacity="1" stroke-width="18" d=" M-39.5099983215332,-39.18299865722656 C-39.5099983215332,-39.18299865722656 -46.38100051879883,-46.31700134277344 -46.38100051879883,-46.31700134277344 C-46.38100051879883,-46.31700134277344 -46.70199966430664,46.69900131225586 -46.70199966430664,46.69900131225586 C-46.70199966430664,46.69900131225586 46.2869987487793,46.80500030517578 46.2869987487793,46.80500030517578 C46.2869987487793,46.80500030517578 42.435001373291016,42.435001373291016 42.435001373291016,42.435001373291016"/><path fill="rgb(255,0,0)" fill-opacity="1" d=" M-39.5099983215332,-39.18299865722656 C-39.5099983215332,-39.18299865722656 -46.38100051879883,-46.31700134277344 -46.38100051879883,-46.31700134277344 C-46.38100051879883,-46.31700134277344 -46.70199966430664,46.69900131225586 -46.70199966430664,46.69900131225586 C-46.70199966430664,46.69900131225586 46.2869987487793,46.80500030517578 46.2869987487793,46.80500030517578 C46.2869987487793,46.80500030517578 42.435001373291016,42.435001373291016 42.435001373291016,42.435001373291016"/></g><g opacity="0" transform="matrix(1,0,0,1,336.7300109863281,149.92799377441406)"><path stroke-linecap="round" stroke-linejoin="round" fill-opacity="0" class="primary" stroke="rgb(18,19,49)" stroke-opacity="1" stroke-width="18" d=" M-46.70199966430664,-46.69900131225586 C-46.70199966430664,-46.69900131225586 -45.23400115966797,-44.32600021362305 -0.38199999928474426,0.7839999794960022 C45.45000076293945,46.87900161743164 46.70199966430664,46.69900131225586 46.70199966430664,46.69900131225586"/><path fill="rgb(255,0,0)" fill-opacity="1" d=" M-46.70199966430664,-46.69900131225586 C-46.70199966430664,-46.69900131225586 -45.23400115966797,-44.32600021362305 -0.38199999928474426,0.7839999794960022 C45.45000076293945,46.87900161743164 46.70199966430664,46.69900131225586 46.70199966430664,46.69900131225586"/></g></g></g></g><clipPath id="__lottie_element_26"><path d="M0,0 L430,0 L430,430 L0,430z"/></clipPath><mask id="__lottie_element_25_1" mask-type="alpha"><use xmlns:ns1="http://www.w3.org/1999/xlink" ns1:href="#__lottie_element_25"/></mask><clipPath id="__lottie_element_30"><path d="M0,0 L430,0 L430,430 L0,430z"/></clipPath><g id="__lottie_element_33"><g transform="matrix(1,0,0,1,-35.001007080078125,-35)" opacity="1" style="display: block;"><g opacity="1" transform="matrix(1,0,0,1,270.0140075683594,270.0150146484375)"><path fill="rgb(255,255,255)" fill-opacity="1" d=" M113.41500091552734,-73.38800048828125 C113.41500091552734,-73.38800048828125 113.41699981689453,166.79100036621094 113.41699981689453,166.79100036621094 C113.41699981689453,166.79100036621094 -113.41699981689453,166.79100036621094 -113.41699981689453,166.79100036621094 C-113.41699981689453,166.79100036621094 -113.41699981689453,-166.79100036621094 -113.41699981689453,-166.79100036621094 C-113.41699981689453,-166.79100036621094 20.01799964904785,-166.78900146484375 20.01799964904785,-166.78900146484375"/></g></g></g><g id="__lottie_element_40"><g transform="matrix(1,0,0,1,-35.001007080078125,-35)" opacity="1" style="display: block;"><g opacity="1" transform="matrix(1,0,0,1,270.0140075683594,270.0150146484375)"><path fill="rgb(255,0,0)" fill-opacity="1" d=" M19.924999237060547,-166.79100036621094 C19.924999237060547,-166.79100036621094 19.924999237060547,-72.6240005493164 19.924999237060547,-72.6240005493164 C19.924999237060547,-72.6240005493164 113.41699981689453,-72.6240005493164 113.41699981689453,-72.6240005493164 C113.41699981689453,-72.6240005493164 113.41500091552734,-73.38800048828125 113.41500091552734,-73.38800048828125 C113.41500091552734,-73.38800048828125 20.01799964904785,-166.78900146484375 20.01799964904785,-166.78900146484375 C20.01799964904785,-166.78900146484375 19.924999237060547,-166.79100036621094 19.924999237060547,-166.79100036621094z"/></g></g></g><filter id="__lottie_element_46" filterUnits="objectBoundingBox" x="0%" y="0%" width="100%" height="100%"><feComponentTransfer in="SourceGraphic"><feFuncA type="table" tableValues="1.0 0.0"/></feComponentTransfer></filter><mask id="__lottie_element_40_2" mask-type="alpha" maskUnits="userSpaceOnUse"><g filter="url(#__lottie_element_46)"><rect width="430" height="430" x="0" y="0" fill="#ffffff" opacity="0"/><use xmlns:ns2="http://www.w3.org/1999/xlink" ns2:href="#__lottie_element_40"/></g></mask><filter id="__lottie_element_47" filterUnits="objectBoundingBox" x="0%" y="0%" width="100%" height="100%"><feComponentTransfer in="SourceGraphic"><feFuncA type="table" tableValues="1.0 0.0"/></feComponentTransfer></filter><mask id="__lottie_element_33_2" mask-type="alpha" maskUnits="userSpaceOnUse"><g filter="url(#__lottie_element_47)"><rect width="430" height="430" x="0" y="0" fill="#ffffff" opacity="0"/><use xmlns:ns3="http://www.w3.org/1999/xlink" ns3:href="#__lottie_element_33"/></g></mask></defs><g clip-path="url(#__lottie_element_16)"><g clip-path="url(#__lottie_element_18)" transform="matrix(1,0,0,1,0,0)" opacity="1" style="display: block;"><g mask="url(#__lottie_element_25_1)" style="display: block;"><g filter="url(#__lottie_element_24)" transform="matrix(-0.1674155443906784,-2.3941538333892822,2.3941538333892822,-0.1674155443906784,271.9410095214844,230.4600067138672)" opacity="1"><g class="design" opacity="1" transform="matrix(1,0,0,1,0,0)"><path class="primary" fill="rgb(79,16,145)" fill-opacity="1" d=" M0,-250 C137.97500610351562,-250 250,-137.97500610351562 250,0 C250,137.97500610351562 137.97500610351562,250 0,250 C-137.97500610351562,250 -250,137.97500610351562 -250,0 C-250,-137.97500610351562 -137.97500610351562,-250 0,-250z"/></g><g class="design" opacity="1" transform="matrix(1,0,0,1,113.24199676513672,-118.88400268554688)"><path class="secondary" fill="rgb(16,145,32)" fill-opacity="1" d=" M0,-176.5 C97.47799682617188,-176.5 176.5,-97.47799682617188 176.5,0 C176.5,97.47799682617188 97.47799682617188,176.5 0,176.5 C-43.948001861572266,176.5 -74.39600372314453,142.4429931640625 -105.29000091552734,115.86900329589844 C-142.92100524902344,83.5 -176.5,53.53099822998047 -176.5,0 C-176.5,-97.47799682617188 -97.47799682617188,-176.5 0,-176.5z"/></g></g></g></g></g></svg>