<svg xmlns="http://www.w3.org/2000/svg" xmlns:xlink="http://www.w3.org/1999/xlink" viewBox="0 0 430 430" width="430" height="430" preserveAspectRatio="xMidYMid meet" style="width: 100%; height: 100%; transform: translate3d(0px, 0px, 0px); content-visibility: visible;"><defs><clipPath id="__lottie_element_2"><rect width="430" height="430" x="0" y="0"/></clipPath><clipPath id="__lottie_element_4"><path d="M0,0 L430,0 L430,430 L0,430z"/></clipPath><filter id="__lottie_element_10" x="-100%" y="-100%" width="300%" height="300%"><feGaussianBlur result="filter_result_0" stdDeviation="52.5 52.5" edgeMode="wrap"/></filter><g id="__lottie_element_11"><g clip-path="url(#__lottie_element_12)" transform="matrix(1,0,0,1,0,0)" opacity="1" style="display: block;"><g transform="matrix(1,0,0,1,215,305)" opacity="1" style="display: block;"><g opacity="1" transform="matrix(1,0,0,1,0,0)"><path stroke-linecap="butt" stroke-linejoin="round" fill-opacity="0" class="primary" stroke="rgb(18,19,49)" stroke-opacity="1" stroke-width="12" d=" M-45,-60.646602630615234 C-108.51300048828125,-60.646602630615234 -160,-9.159603118896484 -160,54.353397369384766 C-160,54.353397369384766 -160,70 -160,70 C-160,70 160,70 160,70 C160,70 160,54.353397369384766 160,54.353397369384766 C160,-9.159603118896484 108.51300048828125,-60.646602630615234 45,-60.646602630615234 C45,-60.646602630615234 -45,-60.646602630615234 -45,-60.646602630615234z"/></g></g><g transform="matrix(1,0,0,1,215,149.78936767578125)" opacity="1" style="display: block;"><g opacity="1" transform="matrix(1,0,0,1,0,0)"><path stroke-linecap="round" stroke-linejoin="round" fill-opacity="0" class="secondary" stroke="rgb(8,168,138)" stroke-opacity="1" stroke-width="12" d=" M0,75 C41.42100143432617,75 75,41.42100143432617 75,0 C75,-41.42100143432617 41.42100143432617,-75 0,-75 C-41.42100143432617,-75 -75,-41.42100143432617 -75,0 C-75,41.42100143432617 -41.42100143432617,75 0,75z"/></g></g></g></g><clipPath id="__lottie_element_12"><path d="M0,0 L430,0 L430,430 L0,430z"/></clipPath><mask id="__lottie_element_11_1" mask-type="alpha"><use xmlns:ns1="http://www.w3.org/1999/xlink" ns1:href="#__lottie_element_11"/></mask></defs><g clip-path="url(#__lottie_element_2)"><g clip-path="url(#__lottie_element_4)" transform="matrix(1,0,0,1,0,0)" opacity="1" style="display: block;"><g mask="url(#__lottie_element_11_1)" style="display: block;"><g filter="url(#__lottie_element_10)" transform="matrix(-2.002161741256714,-1.32338547706604,1.32338547706604,-2.002161741256714,271.9410095214844,198.4600067138672)" opacity="1"><g class="design" opacity="1" transform="matrix(1,0,0,1,0,0)"><path class="primary" fill="rgb(79,16,145)" fill-opacity="1" d=" M0,-250 C137.97500610351562,-250 250,-137.97500610351562 250,0 C250,137.97500610351562 137.97500610351562,250 0,250 C-137.97500610351562,250 -250,137.97500610351562 -250,0 C-250,-137.97500610351562 -137.97500610351562,-250 0,-250z"/></g><g class="design" opacity="1" transform="matrix(1,0,0,1,113.24199676513672,-118.88400268554688)"><path class="secondary" fill="rgb(16,145,32)" fill-opacity="1" d=" M0,-176.5 C97.47799682617188,-176.5 176.5,-97.47799682617188 176.5,0 C176.5,97.47799682617188 97.47799682617188,176.5 0,176.5 C-43.948001861572266,176.5 -74.39600372314453,142.4429931640625 -105.29000091552734,115.86900329589844 C-142.92100524902344,83.5 -176.5,53.53099822998047 -176.5,0 C-176.5,-97.47799682617188 -97.47799682617188,-176.5 0,-176.5z"/></g></g></g></g></g></svg>